<?xml version="1.0" encoding="utf-8"?>
<!-- Generator: Adobe Illustrator 16.0.0, SVG Export Plug-In . SVG Version: 6.00 Build 0)  -->
<!DOCTYPE svg PUBLIC "-//W3C//DTD SVG 1.1//EN" "http://www.w3.org/Graphics/SVG/1.1/DTD/svg11.dtd">
<svg version="1.1" id="Layer_1" xmlns="http://www.w3.org/2000/svg" xmlns:xlink="http://www.w3.org/1999/xlink" x="0px" y="0px"
	 width="321.039px" height="500px" viewBox="0 0 321.039 500" enable-background="new 0 0 321.039 500" xml:space="preserve">
<g>
	<path fill="#020202" d="M112.478,485.156c-2.615-0.897-5.397-0.793-8.073-1.363c-12.718-2.715-24.773-6.913-34.561-15.9
		c-5.374-4.934-8.638-10.951-8.174-18.553c0.222-3.605,1.729-6.83,2.917-10.133c6.184-17.178,12.109-34.443,17.887-51.761
		c1.221-3.657,0.918-7.464,1.385-11.191c0.458-3.659,0.561-7.362,0.909-11.037c0.138-1.452-0.169-2.431-1.364-3.487
		c-7.677-6.789-11.461-15.461-11.935-25.64c-0.211-4.521,0.222-9.021,0.422-13.532c0.057-1.298-0.064-2.426-0.86-3.606
		c-9.453-14.037-16.301-29.218-19.158-45.97c-2.135-12.518-1.338-24.758,5.229-36.071c0.673-1.159,0.396-1.589-0.687-2.158
		c-19.317-10.162-30.817-26.212-34.484-47.538c-3.17-18.44,1.854-35.076,13.41-49.675c10.397-13.132,23.697-21.837,40.174-25.451
		c0.146-0.033,0.287-0.158,0.423-0.148c5.228,0.365,6.704-2.711,8.318-7.245c13.02-36.561,38.382-59.961,76.455-68.065
		c52.831-11.246,104.427,20.274,119.344,72.01c13.287,46.093-7.581,95.666-49.847,118.407c-0.382,0.206-0.75,0.444-1.2,0.713
		c6.747,9.621,12.62,19.686,18.42,29.789c0.685,1.19,1.321,1.062,2.298,0.694c3.224-1.214,6.482-2.337,9.687-3.6
		c11.392-4.481,21.662-2.283,30.092,6.191c9.457,9.506,12.794,21.318,9.8,34.473c-1.786,7.838-6.906,13.729-13.886,17.305
		c-14.478,7.412-29.182,14.427-45.185,18.104c-1.506,0.346-3.05,0.518-4.823,0.812c4.203,3.407,8.018,6.899,11.551,10.712
		c5.601,6.044,8.157,13.31,9.342,21.312c2.404,16.277,2.489,32.646,2.105,49.023c-0.145,6.143,0.115,12.349-1.56,18.412
		c-2.89,10.467-9.22,17.352-19.939,19.925c-9.312,2.232-18.688,4.096-28.319,3.813c-9.771-0.285-18.964-2.399-26.361-9.399
		c-5.412-5.119-8.359-11.543-9.37-18.808c-1.39-9.992-1.862-20.101-3.676-30.041c-0.438-2.391-0.815-4.823-2.366-7.356
		c-0.765,4.133-1.662,7.827-2.104,11.574c-1.968,16.614-7.756,32.001-14.896,46.954c-4.361,9.139-8.916,18.186-13.295,27.313
		c-3.086,6.435-8.646,8.837-15.225,9.748c-0.674,0.093-1.518-0.462-2.015,0.448C117.014,485.156,114.746,485.156,112.478,485.156z
		 M69.948,219.334c2.037-1.689,3.425-3.966,5.271-5.829c0.43-0.435,0.737-0.816-0.094-1.363c-3.563-2.349-4.521-2.4-8.064,0.007
		c-1.49,1.012-2.977,2.042-4.072,3.517c-2.15,1.909-3.359,4.397-4.318,7.035c-0.265,0.729-0.465,1.445,0.5,1.896
		c1.425,0.664,2.847,1.34,4.225,2.094c0.617,0.337,0.911,0.192,1.262-0.333C66.293,223.922,68.486,221.904,69.948,219.334z
		 M65.286,139.56c0.615,0.645,1.237,1.282,1.843,1.933c1.48,1.588,2.759,4.167,4.482,4.509c1.858,0.368,4.103-1.444,6.234-2.132
		c1.284-0.416,1.536-1.069,1.356-2.318c-0.424-2.944-1.921-5.309-3.746-7.532c-2.18-3.432-5.3-5.687-9.033-7.144
		c-0.598-0.233-1.222-0.485-1.938-0.127c-3.662,1.827-7.133,3.933-10.457,6.683C58.431,134.672,61.818,137.19,65.286,139.56z
		 M46.489,191.435c1.988-0.435,3.976-0.874,5.964-1.304c0.711-0.153,1.204-0.289,1.004-1.306c-0.987-5.021-1.311-5.373-6.355-6.331
		c-1.04-0.198-2.063-0.468-3.136-0.344c-3.735-0.602-7.337-0.075-10.819,1.342c-0.573,0.234-1.341,0.277-1.18,1.309
		c0.688,4.388,1.736,8.658,3.626,12.877C38.881,194.653,42.626,192.938,46.489,191.435z M45.771,162.211
		c-3.289-1.534-6.685-2.179-10.321-1.514c-0.947,0.174-1.496,0.473-1.77,1.366c-1.169,3.819-1.879,7.724-2.235,11.698
		c-0.074,0.834,0.102,1.339,1.113,0.997c3.556-1.198,7.248-1.28,10.944-1.304c1.336,0.175,2.673,0.345,4.01,0.526
		c3.468,0.47,3.468,0.472,4.151-3.08c0.961-4.998,0.924-5.093-3.67-7.664C47.285,162.84,46.514,162.551,45.771,162.211z
		 M57.557,144.544c-1.567-1.205-3.293-2.114-5.147-2.789c-5.313-1.934-6.054-1.75-9.435,2.761c-1.769,2.358-3.588,4.706-4.821,7.625
		c4.299-0.197,8.004,1.095,11.707,2.405c2.042,1.266,4.253,2.273,6.083,3.86c0.839,0.727,1.208,0.31,1.737-0.393
		c1.637-2.175,3.431-4.227,5.606-5.882c1.065-0.81,0.913-1.422,0.109-2.31C61.624,147.864,59.799,145.978,57.557,144.544z
		 M56.69,209.812c1.802-1.689,3.589-3.401,5.708-4.701c0.772-0.476,1.063-0.854,0.284-1.688c-1.433-1.532-2.754-3.171-4.06-4.816
		c-0.383-0.484-0.786-0.653-1.336-0.6c-2.366,0.228-4.766,0.297-6.955,1.404c-3.941,0.634-7.152,2.604-9.924,5.398
		c-0.544,0.549-0.766,1.065-0.285,1.782c3.068,4.578,6.49,8.834,10.937,12.307C52.389,215.416,54.339,212.488,56.69,209.812z
		 M122.462,474.941c2.764-0.543,4.669-2.024,5.92-4.646c3.679-7.707,7.612-15.293,11.267-23.011
		c5.06-10.688,10.035-21.434,12.916-32.968c2.31-9.253,3.374-18.749,5.249-28.091c0.275-1.367-0.519-1.567-1.604-1.828
		c-15.742-3.767-31.525-7.342-47.339-10.791c-3.902-0.813-7.735-1.87-11.447-3.336c-3.804-1.502-3.637-1.498-4.041,2.548
		c-0.529,5.315-0.056,10.774-1.679,15.938c-6.112,19.422-12.944,38.601-19.888,57.736c-1.543,4.248-0.935,7.983,1.66,11.517
		c1.667,2.271,3.713,4.18,6.008,5.805c7.514,5.319,15.942,8.51,24.866,10.439C110.324,475.547,116.355,476.531,122.462,474.941z
		 M132.497,57.54c-6.616,3.617-12.378,8.382-17.52,13.807c-22.24,23.459-30.711,51.199-25.173,83.072
		c2.228,12.814,7.363,24.503,14.662,35.258c0.824,1.215,1.515,1.622,3.115,1.213c5.624-1.434,11.39-2.098,17.178-2.509
		c2.179-0.096,4.357-0.284,6.534-0.271c10.111,0.06,20.148,0.847,30.049,3.045c22.122,4.913,42.266,13.973,59.797,28.49
		c1.061,0.878,1.75,0.829,2.877,0.246c9.798-5.075,18.558-11.54,25.934-19.744c20.395-22.683,28.318-49.241,23.432-79.279
		c-3.379-20.776-13.108-38.524-28.777-52.629c-23.827-21.451-51.751-28.75-83.116-22.539
		C151.126,47.753,141.398,51.727,132.497,57.54z M123.392,198.066c-0.522-0.028-1.046-0.104-1.566-0.079
		c-12.243,0.604-22.87,4.909-31.768,13.501c-7.861,7.59-14.489,16.196-21.276,24.702c-7.247,9.085-9.587,19.457-8.3,30.638
		c2.295,19.95,10.57,37.433,22.917,53.123c3.662,4.652,8.347,5.914,13.911,4.805c9.219-1.84,17.257-6.275,24.837-11.586
		c2.735-1.918,3.109-4.961,2.578-8.109c-0.068-6.125-2.457-11.703-4.33-17.355c-2.163-6.533-5.308-12.718-7.15-19.386
		c-2.18-7.891,1-15.895,8.093-20.155c0.891-0.534,2.032-1.394,2.827-0.555c0.772,0.816-0.356,1.753-0.861,2.54
		c-3.268,5.098-4.861,10.498-2.72,16.447c1.976,5.484,4.119,10.906,6.174,16.361c2.271,6.023,5.563,11.652,7.158,17.926
		c2.477,9.735-0.137,17.676-9.511,22.24c-7.409,3.607-14.674,7.507-22.338,10.57c-0.791,0.229-1.594,0.419-2.368,0.692
		c-5.484,1.938-10.697,1.312-15.66-1.639c-1.067-0.636-2.085-1.354-3.201-2.085c-0.904,13.923,4.45,23.247,16.614,29.378
		c4.908,2.475,10.16,3.729,15.467,4.923c17.518,3.932,35.065,7.73,52.463,12.18c5.235,1.34,8.742,4.506,10.718,9.5
		c1.313,3.321,2.037,6.778,2.621,10.28c1.505,9.024,2.041,18.161,3.175,27.228c1.139,9.132,5.624,15.816,14.461,19.143
		c2.979,1.12,6.095,1.708,9.273,1.956c10.553,0.823,20.753-1.234,30.854-3.882c3.082-0.809,5.813-2.465,7.628-5.273
		c1.477-1.646,2.368-3.613,3.123-5.663c1.481-4.025,1.722-8.258,1.744-12.448c0.091-17.272,0.771-34.569-1.753-51.761
		c-0.939-6.397-2.398-12.509-7.003-17.466c-3.611-3.889-7.494-7.445-11.713-10.645c-14.812-11.228-31.091-19.963-47.727-28.094
		c-1.551-0.758-3.145-1.453-4.613-2.35c-0.881-0.535-1.728-1.37-1.354-2.607c0.417-1.375,1.592-1.442,2.77-1.354
		c0.519,0.04,1.038,0.14,1.537,0.277c3.682,1.019,7.362,2.021,11.026,3.093c4.584,1.34,4.49,1.349,5.375-3.502
		c1.428-7.827,3.063-15.615,4.096-23.515c0.218-1.662,1.255-2.75,3.081-2.655c1.857,0.096,2.556,1.334,2.695,3.008
		c0.036,0.45,0.021,0.907,0.004,1.358c-0.272,7.006-0.548,14.011-0.82,21.015c-0.615,2.592-0.338,5.246-0.55,7.864
		c-0.09,1.1,0.651,1.359,1.399,1.75c4.942,2.574,9.874,5.173,14.805,7.771c1.475,0.776,3.018,1.359,4.647,1.701
		c6.397,1.342,12.612,0.223,18.721-1.595c12.53-3.729,24.268-9.411,36.033-14.998c1.955-0.93,3.797-2.141,5.225-3.852
		c2.67-2.337,4.739-5.143,5.438-8.63c1.923-9.582-0.481-18.095-7.242-25.119c-5.509-5.724-12.194-7.337-19.8-4.466
		c-5.812,2.195-11.679,4.245-17.477,6.477c-1.409,0.545-2.01,0.322-2.771-1c-4.733-8.197-9.499-16.383-14.422-24.471
		c-3.051-5.009-6.013-10.118-10.198-14.327c-7.47-7.514-16.366-12.996-25.732-17.733c-16.458-8.327-33.828-13.47-52.329-14.423
		C134.677,197.446,129.02,197.184,123.392,198.066z M96.934,195.063c-0.078-0.167-0.125-0.314-0.209-0.439
		c-8.042-12.078-13.652-25.143-16.063-39.511c-0.186-1.108-0.653-1.232-1.716-0.793c-4.103,1.693-7.724,4.113-10.82,7.24
		c-4.096,4.135-6.988,9.034-6.785,15.005c0.436,12.758,9.694,23.744,21.082,27.438c1.198,0.389,1.897,0.176,2.785-0.622
		C88.791,200.158,92.686,197.355,96.934,195.063z M76.154,122.45c1.247,1.13,2.108,2.187,3.458,2.875
		c0.269-1.305,0.322-2.396,0.05-3.542C78.588,121.987,77.566,122.182,76.154,122.45z"/>
	<path opacity="0.15" d="M102.066,333.693c0.803,2.373,2.891,3.414,4.875,4.406c6.046,3.021,12.573,4.592,19.141,5.975
		c9.791,2.059,19.707,3.381,29.563,5.059c8.596,1.461,17.229,2.881,25.186,6.85c7,3.492,10.572,8.994,11.041,16.809
		c0.508,8.484,1.94,16.877,3.021,25.304c0.872,6.791,1.804,13.577,3.266,20.259c2.442,11.168,10.308,13.695,19.799,13.102
		c5.278-0.329,10.38-1.701,15.525-2.824c5.62-1.229,9.101,1.288,10.628,7.465c-1.814,2.81-4.546,4.465-7.628,5.273
		c-10.102,2.646-20.302,4.705-30.854,3.882c-3.18-0.248-6.294-0.836-9.273-1.956c-8.837-3.325-13.322-10.011-14.461-19.142
		c-1.135-9.066-1.67-18.203-3.175-27.229c-0.585-3.502-1.308-6.959-2.621-10.28c-1.976-4.994-5.481-8.16-10.718-9.5
		c-17.396-4.447-34.945-8.248-52.463-12.18c-5.308-1.191-10.559-2.447-15.467-4.923c-12.164-6.131-17.519-15.455-16.614-29.378
		c1.116,0.73,2.134,1.449,3.201,2.085c4.963,2.949,10.176,3.576,15.66,1.639C100.471,334.112,101.275,333.923,102.066,333.693z"/>
	<path opacity="0.15" d="M123.392,198.066c-0.038,1.183-1.075,1.56-1.795,2.156c-12.898,10.662-25.06,22.038-34.427,36.053
		c-3.579,5.354-6.542,11.034-7.588,17.512c-0.671,4.148-0.204,8.299,0.316,12.398c1.026,8.088,2.752,16.03,5.804,23.635
		c1.89,4.705,4.071,9.231,7.458,13.106c2.57,2.94,5.483,4.276,9.411,3.076c4.331-1.322,8.408-3.353,12.82-4.432
		c4.896-1.202,6.57-0.595,9.332,3.487c0.531,3.148,0.158,6.191-2.578,8.109c-7.58,5.311-15.618,9.746-24.837,11.586
		c-5.564,1.109-10.249-0.152-13.911-4.805c-12.348-15.69-20.622-33.174-22.917-53.123c-1.287-11.182,1.053-21.553,8.3-30.638
		c6.787-8.506,13.416-17.112,21.276-24.702c8.897-8.592,19.524-12.896,31.768-13.501
		C122.345,197.962,122.869,198.038,123.392,198.066z"/>
	<path opacity="0.15" d="M132.497,57.54c0.092,1.2-0.838,1.901-1.415,2.736c-8.615,12.487-15.659,25.752-20.227,40.273
		c-3.957,12.579-5.647,25.489-4.59,38.582c1.43,17.707,7.311,33.918,17.999,48.257c0.217,0.291,0.333,0.66,0.495,0.992
		c-5.788,0.411-11.554,1.075-17.178,2.509c-1.602,0.409-2.291,0.002-3.115-1.213c-7.299-10.755-12.436-22.443-14.662-35.258
		c-5.539-31.873,2.933-59.613,25.173-83.072C120.119,65.922,125.881,61.157,132.497,57.54z"/>
	<path opacity="0.15" d="M108.868,373.609c-0.679,16.938-6.741,32.443-12.686,47.996c-2.285,5.975-4.392,12.037-4.567,18.545
		c-0.192,7.061,3.104,12.053,9.189,15.379c3.327,1.817,6.899,3.011,10.479,4.19c2.955,0.979,5.708,2.361,8.264,4.132
		c4.93,3.416,5.592,5.952,2.915,11.09c-6.105,1.59-12.137,0.604-18.114-0.688c-8.924-1.931-17.353-5.12-24.866-10.439
		c-2.294-1.625-4.34-3.532-6.008-5.805c-2.594-3.531-3.203-7.269-1.66-11.517c6.943-19.136,13.775-38.314,19.888-57.736
		c1.623-5.162,1.148-10.621,1.679-15.938c0.403-4.046,0.236-4.05,4.041-2.548C101.133,371.738,104.966,372.796,108.868,373.609z"/>
	<path opacity="0.15" d="M204.58,302.787c4.15-0.059,8.195,1.033,12.368,1.009c3.762-0.021,7.316-0.594,10.803-1.974
		c10.583-4.188,21.195-8.301,31.784-12.475c6.389-2.519,10.113-1.273,13.048,5.016c2.514,5.385,6.452,7.721,12.277,7.065
		c-1.428,1.712-3.27,2.923-5.225,3.852c-11.767,5.587-23.503,11.271-36.033,14.999c-6.107,1.815-12.322,2.936-18.721,1.594
		c-1.631-0.342-3.174-0.925-4.647-1.701c-4.931-2.598-9.861-5.195-14.805-7.77c-0.748-0.392-1.489-0.651-1.399-1.75
		C204.242,308.033,203.965,305.379,204.58,302.787z"/>
	<path opacity="0.15" d="M65.286,139.56c2.896-2.755,6.543-4.129,10.17-5.541c1.825,2.223,3.322,4.588,3.746,7.532
		c0.18,1.249-0.072,1.903-1.356,2.318c-2.132,0.688-4.376,2.5-6.234,2.132c-1.724-0.342-3.001-2.921-4.482-4.509
		C66.523,140.841,65.901,140.204,65.286,139.56z"/>
	<path opacity="0.15" d="M49.861,154.546c1.811-2.931,4.053-5.517,6.386-8.034c0.537-0.579,1.369-0.982,1.311-1.968
		c2.24,1.434,4.065,3.32,5.84,5.278c0.804,0.887,0.956,1.5-0.109,2.31c-2.176,1.655-3.97,3.707-5.606,5.882
		c-0.529,0.701-0.898,1.118-1.737,0.393C54.114,156.819,51.903,155.812,49.861,154.546z"/>
	<path opacity="0.15" d="M56.69,209.812c-1.152-2.903-3.701-4.869-5.099-7.604c-0.465-0.91-1.436-1.597-1.26-2.797
		c2.189-1.106,4.589-1.177,6.955-1.404c0.55-0.053,0.954,0.116,1.336,0.6c1.306,1.645,2.626,3.284,4.06,4.816
		c0.778,0.833,0.488,1.212-0.284,1.687C60.279,206.411,58.492,208.123,56.69,209.812z"/>
	<path opacity="0.15" d="M43.504,173.455c0.004-3.9,1.271-7.544,2.268-11.244c0.743,0.34,1.514,0.629,2.224,1.026
		c4.594,2.571,4.631,2.666,3.67,7.664c-0.684,3.552-0.684,3.55-4.151,3.08C46.177,173.8,44.841,173.63,43.504,173.455z"/>
	<path opacity="0.15" d="M69.948,219.334c-1.644,0.263-2.515-1.089-3.717-1.759c-1.097-0.612-1.898-1.72-3.241-1.909
		c1.096-1.475,2.582-2.505,4.072-3.517c3.543-2.408,4.5-2.356,8.064-0.007c0.831,0.547,0.523,0.929,0.094,1.363
		C73.373,215.368,71.985,217.645,69.948,219.334z"/>
	<path opacity="0.15" d="M46.489,191.435c-1.47-2.924-1.98-6.109-2.522-9.285c1.071-0.124,2.096,0.146,3.136,0.344
		c5.045,0.958,5.369,1.311,6.355,6.331c0.2,1.018-0.293,1.153-1.004,1.306C50.465,190.561,48.477,191,46.489,191.435z"/>
	<path fill="#020202" d="M270.125,139.939c-0.076,9.873-2.016,21.267-6.61,32.103c-2.488,5.866-5.914,11.213-10.351,15.817
		c-4.333,4.497-8.21,4.716-13.203,0.925c-3.499-2.654-6.546-5.815-9.629-8.922c-13.372-13.473-29.566-22.168-47.379-28.169
		c-4.207-1.418-8.328-3.112-12.582-4.369c-9.215-2.724-14.183-9.27-16.598-18.101c-3.176-11.611-1.999-23.196,0.622-34.721
		c0.616-2.714,1.461-5.376,2.218-8.057c4.159-14.751,14.45-23.503,28.564-27.647c24.32-7.142,44.983-0.298,61.789,18.206
		C261.69,93.218,270.125,116.17,270.125,139.939z M191.375,62.046c7.507,1.996,14.352,5.468,21.24,8.867
		c14.536,7.169,26.365,17.476,35.479,30.802c5.585,8.166,9.602,17.211,13.512,26.276c1.169,2.711,2.256,5.458,3.496,8.469
		c0.527-1.292,0.288-2.255,0.167-3.179c-1.208-9.224-3.309-18.238-6.764-26.886c-9.843-24.632-26.479-41.063-53.918-44.259
		C200.207,61.626,195.792,61.399,191.375,62.046z"/>
</g>
</svg>
