<?xml version="1.0" encoding="utf-8"?>
<!-- Generator: Adobe Illustrator 16.0.0, SVG Export Plug-In . SVG Version: 6.00 Build 0)  -->
<!DOCTYPE svg PUBLIC "-//W3C//DTD SVG 1.1//EN" "http://www.w3.org/Graphics/SVG/1.1/DTD/svg11.dtd">
<svg version="1.1" id="Layer_1" xmlns="http://www.w3.org/2000/svg" xmlns:xlink="http://www.w3.org/1999/xlink" x="0px" y="0px"
	 width="150px" height="150px" viewBox="0 0 150 150" enable-background="new 0 0 150 150" xml:space="preserve">
<g>
	<rect x="52.113" y="35.707" fill="#B7BEC0" width="49.037" height="55.936"/>
	<g>
		<path fill="#292E33" d="M40.797,108.919H36.65v-72.61h0.231c1.02-4.891,5.397-8.602,10.55-8.602h61.719v71.936H47.432
			c-3.739,0-6.781,3.041-6.781,6.781c0,0.074,0.007,0.146,0.012,0.22L40.797,108.919z M40.65,38.814v59.232
			c1.854-1.503,4.214-2.404,6.781-2.404h57.719V31.707H47.432c-3.66,0-6.698,2.98-6.771,6.642L40.65,38.814z"/>
	</g>
	<g>
		<g>
			<path fill="#FFFFFF" d="M107.15,97.643H90.182h-42.75c-4.85,0-8.781,3.932-8.781,8.781c0,4.848,3.932,8.779,8.781,8.779h42.75
				h16.969V97.643z"/>
			<path fill="#292E33" d="M109.15,117.203H47.432c-5.944,0-10.781-4.836-10.781-10.779c0-5.945,4.837-10.781,10.781-10.781h61.719
				V117.203z M47.432,99.643c-3.739,0-6.781,3.041-6.781,6.781c0,3.738,3.042,6.779,6.781,6.779h57.719V99.643H47.432z"/>
		</g>
	</g>
	<polygon fill="#33C1D8" points="64.537,122.252 58.166,118.212 51.799,122.252 51.799,107.18 58.166,107.18 64.537,107.18 	"/>
	<g>
		<path fill="#FFFFFF" d="M46.777,106.924h60.375H46.777z"/>
		<rect x="46.777" y="104.924" fill="#292E33" width="60.375" height="4"/>
	</g>
	<g>
		<path fill="#FFFFFF" d="M46.777,97.098V30.555V97.098z"/>
		<rect x="44.777" y="30.555" fill="#292E33" width="4" height="66.543"/>
	</g>
	<g>
		<rect x="63.447" y="59.511" fill="#292E33" width="27" height="4"/>
	</g>
	<g>
		<rect x="66.615" y="51.011" fill="#292E33" width="20.666" height="4"/>
	</g>
</g>
</svg>
