<?xml version="1.0" encoding="utf-8"?>
<!-- Generator: Adobe Illustrator 16.0.0, SVG Export Plug-In . SVG Version: 6.00 Build 0)  -->
<!DOCTYPE svg PUBLIC "-//W3C//DTD SVG 1.1//EN" "http://www.w3.org/Graphics/SVG/1.1/DTD/svg11.dtd">
<svg version="1.1" id="Layer_1" xmlns="http://www.w3.org/2000/svg" xmlns:xlink="http://www.w3.org/1999/xlink" x="0px" y="0px"
	 width="150px" height="150px" viewBox="0 0 150 150" enable-background="new 0 0 150 150" xml:space="preserve">
<g>
	<g>
		<g>
			<path fill="#FFFFFF" d="M88.795,59.937c-0.004-5.951-2.316-11.541-6.518-15.736c-4.205-4.209-9.808-6.521-15.772-6.508
				c-5.938,0.016-11.517,2.33-15.697,6.515c-8.672,8.677-8.674,22.799,0.008,31.47c4.21,4.211,9.819,6.52,15.784,6.51
				c5.937-0.014,11.505-2.328,15.689-6.512C86.486,71.476,88.799,65.886,88.795,59.937z"/>
			<path fill="#282D33" d="M66.563,84.188c-6.492,0-12.586-2.52-17.162-7.096c-4.574-4.57-7.096-10.661-7.096-17.147
				c-0.002-6.484,2.516-12.576,7.088-17.15c4.558-4.563,10.633-7.084,17.107-7.102c6.535,0,12.621,2.52,17.193,7.095
				c4.574,4.569,7.098,10.659,7.102,17.147c0.004,6.482-2.514,12.574-7.092,17.155c-4.563,4.563-10.635,7.084-17.099,7.098H66.563z
				 M66.556,39.693c-5.454,0.014-10.528,2.119-14.333,5.928c-3.817,3.82-5.92,8.906-5.919,14.324
				c0.001,5.417,2.104,10.502,5.925,14.316c3.82,3.823,8.91,5.926,14.334,5.926v2l0.033-2c5.398-0.012,10.468-2.117,14.279-5.926
				c3.82-3.823,5.924-8.91,5.92-14.323c-0.004-5.42-2.109-10.506-5.93-14.321C77.047,41.795,71.966,39.693,66.556,39.693z"/>
		</g>
		<g>
			<path fill="#30C0D8" d="M78.701,72.035c-3.252,3.264-7.565,5.057-12.153,5.059c-9.459,0.008-17.154-7.684-17.152-17.145
				c0-4.564,1.777-8.86,5.006-12.104c3.248-3.26,7.561-5.053,12.141-5.053c4.578-0.002,8.881,1.777,12.127,5.027
				c3.244,3.238,5.031,7.549,5.035,12.12C83.707,64.5,81.932,68.794,78.701,72.035z"/>
			<g>
				<path fill="#FFFFFF" d="M55.38,59.947h-4c0-3.949,1.538-7.667,4.329-10.469c2.806-2.818,6.535-4.37,10.501-4.37v4
					c-2.894,0-5.616,1.134-7.667,3.192C56.503,54.348,55.38,57.064,55.38,59.947z"/>
			</g>
		</g>
		<rect x="60.037" y="94.84" fill="#B7BEC0" width="13.027" height="21.18"/>
		<g>
			<rect x="62.006" y="90.341" fill="#FFFFFF" width="9.088" height="4.453"/>
			<polygon fill="#282D33" points="64.005,94.793 60.005,94.793 60.008,88.34 73.095,88.342 73.095,94.793 69.095,94.793
				69.095,92.342 64.006,92.34 			"/>
		</g>
		<g>
			<path fill="#FFFFFF" d="M71.095,116.02c0,0.725,0,1.453-0.002,2.182c-2.506,2.51-6.576,2.51-9.088-0.002c0-0.727,0-1.453,0-2.18
				H71.095z"/>
			<path fill="#282D33" d="M66.553,122.082c-0.002,0-0.002,0-0.002,0c-2.251,0-4.367-0.877-5.96-2.469l-0.586-0.584v-3.01h4v1.26
				c0.741,0.521,1.622,0.803,2.546,0.803c0.001,0,0.001,0,0.001,0c0.924,0,1.804-0.279,2.542-0.801l0.001-1.262h4l-0.005,3.012
				l-0.582,0.584C70.918,121.207,68.803,122.082,66.553,122.082z"/>
		</g>
		<g>
			<g>
				<g>
					<rect x="67.988" y="82.35" fill="#282D33" width="4" height="6.852"/>
				</g>
			</g>
			<g>
				<g>
					<rect x="61.113" y="82.35" fill="#282D33" width="4" height="6.852"/>
				</g>
			</g>
		</g>
	</g>
	<g>
		<path fill="#282D33" d="M115.811,92.213c-0.123,0-0.246-0.002-0.367-0.008l-0.346,0.008H76.73v-4h36.965l0.045-0.123l1.541,0.094
			c0.176,0.016,0.35,0.029,0.529,0.029c3.471,0,6.295-2.824,6.295-6.297c0-3.422-2.68-6.182-6.102-6.281l-2.178-0.064l0.25-2.167
			c0.082-0.703,0.123-1.328,0.123-1.914c0-8.89-7.23-16.121-16.117-16.121c-0.637,0-1.295,0.045-2.01,0.137l-1.822,0.236
			l-0.389-1.796c-1.135-5.24-3.75-10.022-7.563-13.829c-5.285-5.289-12.315-8.199-19.804-8.199c-0.021,0-0.042,0-0.063,0
			c-7.482,0.02-14.505,2.934-19.772,8.206c-4.994,4.996-7.894,11.651-8.164,18.739l-0.052,1.336l-1.253,0.463
			c-5.56,2.057-9.295,7.412-9.295,13.324c0,7.846,6.381,14.227,14.225,14.227h14.251v4H42.12c-10.049,0-18.225-8.176-18.225-18.227
			c0-7.133,4.24-13.633,10.678-16.568c0.595-7.611,3.854-14.715,9.256-20.121c6.021-6.025,14.045-9.356,22.594-9.379
			c0.023,0,0.049,0,0.072,0c8.559,0,16.593,3.326,22.632,9.37c3.938,3.931,6.758,8.775,8.223,14.096
			c0.246-0.011,0.488-0.015,0.732-0.015c11.092,0,20.117,9.025,20.117,20.121c0,0.137-0.002,0.273-0.006,0.414
			c4.572,1.063,7.912,5.125,7.912,10.012C126.105,87.594,121.486,92.213,115.811,92.213z"/>
	</g>
</g>
</svg>
