<?xml version="1.0" encoding="utf-8"?>
<!-- Generator: Adobe Illustrator 16.0.0, SVG Export Plug-In . SVG Version: 6.00 Build 0)  -->
<!DOCTYPE svg PUBLIC "-//W3C//DTD SVG 1.1//EN" "http://www.w3.org/Graphics/SVG/1.1/DTD/svg11.dtd">
<svg version="1.1" id="Layer_1" xmlns="http://www.w3.org/2000/svg" xmlns:xlink="http://www.w3.org/1999/xlink" x="0px" y="0px"
	 width="150px" height="150px" viewBox="0 0 150 150" enable-background="new 0 0 150 150" xml:space="preserve">
<g>
	<g>
		<g>
			<path fill="#292E33" d="M115.133,83.242h-9.16v-4l7.76,0.006c0.169-0.012,0.321-0.01,0.439-0.008l0.258,0.002
				c3.379,0,6.127-2.75,6.127-6.13c0-3.329-2.607-6.015-5.936-6.112l-2.179-0.064l0.251-2.164c0.081-0.705,0.119-1.301,0.119-1.873
				c0-8.686-7.065-15.752-15.75-15.752c-1.406,0-2.84,0.202-4.26,0.6l-2.209,0.619l-0.312-2.273
				c-1.62-11.828-11.857-20.748-23.813-20.748c-13.261,0-24.049,10.785-24.049,24.043l0.004,1.958l-1.773,0.202
				c-7.014,0.8-12.303,6.731-12.303,13.798c0,7.663,6.232,13.897,13.893,13.897v4c-9.866,0-17.893-8.029-17.893-17.897
				c0-8.509,5.955-15.739,14.113-17.487c0.796-14.756,13.055-26.514,28.008-26.514c13.217,0,24.634,9.348,27.399,22.072
				c1.066-0.178,2.135-0.27,3.194-0.27c10.891,0,19.75,8.861,19.75,19.752c0,0.123-0.001,0.248-0.004,0.374
				c4.479,1.058,7.748,5.045,7.748,9.84c0,5.345-4.161,9.737-9.414,10.104L115.133,83.242z"/>
		</g>
	</g>
	<g>
		<g>
			<path fill="#FFFFFF" d="M62.641,57.368h-7.395c-4.322,0-7.83,3.462-7.918,7.764l-0.008,1v49.933l0.023-2
				c-0.01-0.15-0.023,1.704-0.023,1.554c0-4.378,3.549-7.929,7.926-7.929h45.908V57.368h-27.18H62.641z"/>
			<path fill="#292E33" d="M47.313,117.627h-0.003l-1.99-0.01l0.008-52.501c0.11-5.387,4.559-9.748,9.918-9.748h7.395v4h-7.395
				c-3.198,0-5.853,2.604-5.918,5.806l-0.008,0.974v41.511c1.655-1.236,3.706-1.969,5.926-1.969h43.908V59.368h-25.18v-4h29.18
				v54.321H55.246c-3.155,0-5.743,2.482-5.917,5.596l-0.009,0.803h-0.074C48.89,117.601,47.409,117.627,47.313,117.627z"/>
		</g>
		<rect x="59.473" y="62.784" fill="#B7BEC0" width="36.266" height="39.489"/>
		<g>
			<g>
				<path fill="#FFFFFF" d="M101.154,107.689H87.836h-32.59c-4.377,0-7.926,3.551-7.926,7.929c0,4.376,3.549,7.925,7.926,7.925
					h32.59h13.318V107.689z"/>
				<path fill="#292E33" d="M103.154,125.543H55.246c-5.473,0-9.926-4.452-9.926-9.925c0-5.475,4.453-9.929,9.926-9.929h47.908
					V125.543z M55.246,109.689c-3.268,0-5.926,2.66-5.926,5.929c0,3.267,2.658,5.925,5.926,5.925h43.908v-11.854H55.246z"/>
			</g>
		</g>
		<polygon fill="#33C1D8" points="70.688,129.906 64.938,126.26 59.188,129.906 59.188,116.301 64.938,116.301 70.688,116.301 		"/>
		<g>
			<path fill="#FFFFFF" d="M54.656,116.07h46.498H54.656z"/>
			<rect x="54.656" y="114.07" fill="#292E33" width="46.498" height="4"/>
		</g>
		<g>
			<path fill="#FFFFFF" d="M54.656,107.2V58.132V107.2z"/>
			<rect x="52.656" y="58.132" fill="#292E33" width="4" height="49.068"/>
		</g>
	</g>
	<g>
		<g>
			<g>
				<polygon fill="#292E33" points="75.522,48.438 68.352,41.273 61.184,48.438 58.355,45.607 68.352,35.619 78.349,45.607 				"/>
			</g>
		</g>
		<g>
			<rect x="66.576" y="41.146" fill="#292E33" width="4" height="26.462"/>
		</g>
	</g>
	<g>
		<g>
			<g>
				<polygon fill="#292E33" points="79.695,94.857 69.698,84.869 72.524,82.039 79.695,89.203 86.863,82.039 89.691,84.869 				"/>
			</g>
		</g>
		<g>
			<rect x="77.471" y="62.868" fill="#292E33" width="4" height="26.462"/>
		</g>
	</g>
</g>
</svg>
