<?xml version="1.0" encoding="utf-8"?>
<!-- Generator: Adobe Illustrator 16.0.0, SVG Export Plug-In . SVG Version: 6.00 Build 0)  -->
<!DOCTYPE svg PUBLIC "-//W3C//DTD SVG 1.1//EN" "http://www.w3.org/Graphics/SVG/1.1/DTD/svg11.dtd">
<svg version="1.1" id="Layer_1" xmlns="http://www.w3.org/2000/svg" xmlns:xlink="http://www.w3.org/1999/xlink" x="0px" y="0px"
	 width="150px" height="150px" viewBox="0 0 150 150" enable-background="new 0 0 150 150" xml:space="preserve">
<g>
	<g>
		<path fill="#292E33" d="M306.969,2373.252h-73.021c-9.866,0-17.894-8.029-17.894-17.896c0-8.51,5.955-15.741,14.113-17.488
			c0.797-14.756,13.055-26.514,28.008-26.514c13.217,0,24.633,9.348,27.4,22.072c1.065-0.179,2.134-0.27,3.193-0.27
			c10.891,0,19.75,8.861,19.75,19.752c0,0.124-0.002,0.248-0.004,0.374c4.479,1.06,7.748,5.046,7.748,9.841
			c0,5.303-4.094,9.666-9.286,10.094L306.969,2373.252z M305.571,2369.246l0.566,0.006c3.378,0,6.126-2.75,6.126-6.129
			c0-3.33-2.607-6.015-5.937-6.113l-2.179-0.065l0.251-2.164c0.081-0.694,0.12-1.306,0.12-1.872c0-8.686-7.065-15.752-15.75-15.752
			c-1.407,0-2.84,0.203-4.258,0.6l-2.21,0.62l-0.312-2.274c-1.621-11.828-11.859-20.748-23.814-20.748
			c-13.261,0-24.049,10.785-24.049,24.041l0.004,1.961l-1.773,0.201c-7.014,0.8-12.303,6.732-12.303,13.799
			c0,7.662,6.232,13.896,13.894,13.896h71.456C305.458,2369.248,305.514,2369.246,305.571,2369.246z"/>
	</g>
	<g>
		<path fill="#292E33" d="M238.131,2340.525l-0.004-0.175c0-12.149,9.891-21.997,22.049-21.997v4
			c-9.952,0-18.049,8.053-18.049,17.953l0.004,0.13L238.131,2340.525z"/>
	</g>
	<g>
		<path fill="#292E33" d="M227.055,2356.355h-4c0-6.049,4.526-11.127,10.529-11.812l0.453,3.974
			C230.057,2348.972,227.055,2352.342,227.055,2356.355z"/>
	</g>
	<g>
		<g>
			<g>
				<path fill="#292E33" d="M267.623,2382.143h-2.588c-6.46,0-10.316-3.109-10.316-8.318v-17.584
					c0-5.689,4.628-10.318,10.316-10.318h2.588c5.688,0,10.314,4.629,10.314,10.318v17.584
					C277.938,2379.033,274.082,2382.143,267.623,2382.143z M265.035,2349.922c-3.482,0-6.316,2.834-6.316,6.318v17.584
					c0,2.867,2.125,4.318,6.316,4.318h2.588c4.189,0,6.314-1.451,6.314-4.318v-17.584c0-3.484-2.832-6.318-6.314-6.318H265.035z"/>
			</g>
		</g>
		<g>
			<rect x="251.578" y="2359.779" fill="#B7BEC0" width="29.502" height="23.655"/>
			<path fill="#292E33" d="M279.08,2361.779v19.655h-25.502v-19.655H279.08L279.08,2361.779z M283.08,2357.779h-4h-25.502h-4v4
				v19.655v4h4h25.502h4v-4v-19.655V2357.779L283.08,2357.779z"/>
		</g>
		<path fill="#292E33" d="M266.33,2365.943c-1.299,0-2.354,1.051-2.354,2.352c0,0.859,0.461,1.605,1.146,2.016l-0.533,5.795h1.74
			h1.736l-0.531-5.795c0.686-0.41,1.146-1.156,1.146-2.016C268.682,2366.994,267.627,2365.943,266.33,2365.943L266.33,2365.943z"/>
	</g>
</g>
<g>
	<g>
		<path fill="#292E33" d="M115.969,100.252H42.948c-9.867,0-17.894-8.029-17.894-17.896c0-8.51,5.955-15.741,14.113-17.488
			c0.796-14.756,13.054-26.514,28.008-26.514c13.217,0,24.633,9.348,27.4,22.072c1.065-0.179,2.134-0.27,3.193-0.27
			c10.891,0,19.75,8.861,19.75,19.752c0,0.124-0.002,0.248-0.004,0.374c4.479,1.06,7.748,5.046,7.748,9.841
			c0,5.303-4.094,9.666-9.286,10.094L115.969,100.252z M114.571,96.246l0.566,0.006c3.378,0,6.126-2.75,6.126-6.129
			c0-3.33-2.607-6.015-5.937-6.113l-2.179-0.065l0.251-2.164c0.081-0.694,0.12-1.306,0.12-1.872c0-8.686-7.065-15.752-15.75-15.752
			c-1.407,0-2.84,0.203-4.258,0.6l-2.21,0.62l-0.312-2.274c-1.621-11.828-11.859-20.748-23.814-20.748
			c-13.261,0-24.049,10.785-24.049,24.041l0.004,1.961l-1.773,0.201c-7.014,0.8-12.303,6.732-12.303,13.799
			c0,7.662,6.232,13.896,13.894,13.896h71.456C114.458,96.248,114.514,96.246,114.571,96.246z"/>
	</g>
	<g>
		<path fill="#292E33" d="M47.131,67.525l-0.004-0.175c0-12.149,9.891-21.997,22.048-21.997v4c-9.952,0-18.049,8.053-18.049,17.953
			l0.003,0.13L47.131,67.525z"/>
	</g>
	<g>
		<path fill="#292E33" d="M36.055,83.355h-4c0-6.049,4.526-11.127,10.529-11.812l0.453,3.974
			C39.057,75.972,36.055,79.342,36.055,83.355z"/>
	</g>
	<g>
		<g>
			<g>
				<path fill="#292E33" d="M76.623,109.143h-2.588c-6.46,0-10.316-3.109-10.316-8.318V83.24c0-5.689,4.628-10.318,10.316-10.318
					h2.588c5.688,0,10.314,4.629,10.314,10.318v17.584C86.938,106.033,83.082,109.143,76.623,109.143z M74.035,76.922
					c-3.483,0-6.316,2.834-6.316,6.318v17.584c0,2.867,2.125,4.318,6.316,4.318h2.588c4.189,0,6.314-1.451,6.314-4.318V83.24
					c0-3.484-2.832-6.318-6.314-6.318H74.035z"/>
			</g>
		</g>
		<g>
			<rect x="60.578" y="86.779" fill="#B7BEC0" width="29.502" height="23.655"/>
			<path fill="#292E33" d="M88.08,88.779v19.655H62.578V88.779H88.08L88.08,88.779z M92.08,84.779h-4H62.578h-4v4v19.655v4h4H88.08
				h4v-4V88.779V84.779L92.08,84.779z"/>
		</g>
		<path fill="#292E33" d="M75.33,92.943c-1.299,0-2.354,1.051-2.354,2.352c0,0.859,0.461,1.605,1.146,2.016l-0.533,5.795h1.74h1.736
			l-0.531-5.795c0.686-0.41,1.146-1.156,1.146-2.016C77.682,93.994,76.627,92.943,75.33,92.943L75.33,92.943z"/>
	</g>
</g>
</svg>
