<?xml version="1.0" encoding="utf-8"?>
<!-- Generator: Adobe Illustrator 16.0.0, SVG Export Plug-In . SVG Version: 6.00 Build 0)  -->
<!DOCTYPE svg PUBLIC "-//W3C//DTD SVG 1.1//EN" "http://www.w3.org/Graphics/SVG/1.1/DTD/svg11.dtd">
<svg version="1.1" id="Layer_1" xmlns="http://www.w3.org/2000/svg" xmlns:xlink="http://www.w3.org/1999/xlink" x="0px" y="0px"
	 width="150px" height="150px" viewBox="0 0 150 150" enable-background="new 0 0 150 150" xml:space="preserve">
<g>
	<polygon fill="#B7BEC0" points="59.982,55.977 123.642,55.977 123.642,101.184 112.568,101.184 112.568,113.178 100.576,101.184
		59.982,101.184 	"/>
	<g>
		<polygon fill="#FFFFFF" points="112.066,40.559 27.656,40.559 27.656,90.935 41.028,90.935 41.028,106.758 58.518,90.935
			112.066,90.935 		"/>
		<path fill="#282D33" d="M39.028,111.265v-18.33H25.656V38.559h88.41v54.376H59.288L39.028,111.265z M29.656,88.935h13.372v13.317
			l14.719-13.317h52.319V42.559h-80.41V88.935z"/>
	</g>
	<polygon fill="#30C0D8" points="47.267,84.697 33.895,84.697 33.895,46.799 105.828,46.799 105.828,84.697 56.114,84.697 	"/>
	<g>
		<circle fill="#FFFFFF" cx="53.053" cy="65.486" r="3.813"/>
		<circle fill="#FFFFFF" cx="69.861" cy="65.486" r="3.813"/>
		<circle fill="#FFFFFF" cx="86.67" cy="65.486" r="3.813"/>
	</g>
</g>
</svg>
