<?xml version="1.0" encoding="utf-8"?>
<!-- Generator: Adobe Illustrator 16.0.0, SVG Export Plug-In . SVG Version: 6.00 Build 0)  -->
<!DOCTYPE svg PUBLIC "-//W3C//DTD SVG 1.1//EN" "http://www.w3.org/Graphics/SVG/1.1/DTD/svg11.dtd">
<svg version="1.1" id="Layer_1" xmlns="http://www.w3.org/2000/svg" xmlns:xlink="http://www.w3.org/1999/xlink" x="0px" y="0px"
	 width="150px" height="150px" viewBox="0 0 150 150" enable-background="new 0 0 150 150" xml:space="preserve">
<g>
	<g>
		<path fill="#FFFFFF" d="M27.598,102.469v7.959c0,1.527,1.562,3.227,3.086,3.227h88.842c1.525,0,2.438-1.57,2.438-3.096v-8.09
			H27.598z"/>
		<path fill="#292E33" d="M119.525,115.654H30.684c-2.614,0-5.086-2.541-5.086-5.227v-9.959h98.365v10.09
			C123.963,113.063,122.303,115.654,119.525,115.654z M29.598,104.469v5.959c0,0.48,0.722,1.227,1.086,1.227h88.842
			c0.127,0,0.438-0.475,0.438-1.096v-6.09H29.598z"/>
	</g>
	<g>
		<path fill="#FFFFFF" d="M64.284,113.715c-0.163,1.979,0.189,6.379-0.237,8.529c-0.39,1.969-0.662,2.035-1.707,2.615
			c-0.589,0.323-1.584,0.774-2.418,1.135l0,0L64.284,113.715z"/>
		<path fill="#292E33" d="M60.717,127.829l-1.59-3.671c0.997-0.432,1.818-0.815,2.253-1.053l0.133-0.073
			c0.125-0.069,0.233-0.122,0.325-0.182c0.043-0.112,0.126-0.382,0.247-0.995c0.219-1.102,0.19-3.236,0.167-4.951
			c-0.017-1.277-0.033-2.482,0.039-3.354l3.986,0.328c-0.056,0.681-0.041,1.795-0.025,2.972c0.028,2.1,0.057,4.271-0.243,5.783
			c-0.473,2.388-1.055,3.069-2.565,3.9l-0.133,0.073C62.602,126.996,61.51,127.486,60.717,127.829z"/>
	</g>
	<g>
		<path fill="#FFFFFF" d="M89.538,126.008c-0.839-0.365-1.851-0.824-2.446-1.148c-1.042-0.58-1.248-0.646-1.637-2.615
			c-0.426-2.15-0.076-6.439-0.237-8.42L89.538,126.008z"/>
		<path fill="#292E33" d="M88.739,127.842c-0.803-0.35-1.907-0.847-2.604-1.226l-0.097-0.054c-1.635-0.908-2.087-1.607-2.546-3.931
			c-0.3-1.514-0.271-3.651-0.243-5.718c0.015-1.156,0.029-2.247-0.025-2.928l3.986-0.324c0.071,0.869,0.055,2.053,0.038,3.307
			c-0.022,1.686-0.051,3.783,0.168,4.887c0.122,0.621,0.202,0.904,0.246,1.033c0.09,0.056,0.195,0.108,0.318,0.177
			c0.504,0.276,1.338,0.666,2.355,1.108L88.739,127.842z"/>
	</g>
	<g>
		<path fill="#FFFFFF" d="M57.332,125.834h34.906H57.332z"/>
		<rect x="57.332" y="123.834" fill="#292E33" width="34.906" height="4"/>
	</g>
	<g>
		<path fill="#FFFFFF" d="M39.449,44.755h-9.275c-1.425,0-2.583,1.158-2.583,2.583v55.187h94.343V47.338
			c0-1.425-1.16-2.583-2.585-2.583h-9.244H39.449z"/>
		<path fill="#292E33" d="M123.934,104.525H25.591V47.338c0-2.528,2.056-4.583,4.583-4.583h9.275v4h-9.275
			c-0.321,0-0.583,0.261-0.583,0.583v53.187h90.343V47.338c0-0.322-0.263-0.583-0.585-0.583h-9.244v-4h9.244
			c2.528,0,4.585,2.055,4.585,4.583V104.525z"/>
	</g>
	<g>
		<rect x="34.969" y="52.25" fill="#33C1D8" width="11.73" height="42.722"/>
		<rect x="102.854" y="52.25" fill="#33C1D8" width="11.604" height="42.722"/>
	</g>
	<g>
		<g>
			<rect x="102.042" y="43.088" fill="#292E33" width="4" height="51.884"/>
		</g>
		<g>
			<polygon fill="#292E33" points="47.63,94.972 43.63,94.972 43.63,23.807 87.765,23.807 87.765,27.807 47.63,27.807 			"/>
		</g>
		<g>
			<polygon fill="#B7BEC0" points="90.509,39.344 105.925,39.344 90.509,23.924 			"/>
		</g>
		<g>
			<rect x="55.435" y="42.762" fill="#292E33" width="21.907" height="4"/>
		</g>
		<g>
			<rect x="55.435" y="51.475" fill="#292E33" width="37.547" height="4"/>
		</g>
		<g>
			<rect x="55.435" y="60.188" fill="#292E33" width="37.547" height="4"/>
		</g>
		<g>
			<rect x="55.435" y="68.9" fill="#292E33" width="37.547" height="4"/>
		</g>
		<g>
			<rect x="55.435" y="77.614" fill="#292E33" width="37.547" height="4"/>
		</g>
		<g>
			<rect x="55.435" y="86.328" fill="#292E33" width="37.547" height="4"/>
		</g>
	</g>
</g>
</svg>
