<?xml version="1.0" encoding="utf-8"?>
<!-- Generator: Adobe Illustrator 16.0.0, SVG Export Plug-In . SVG Version: 6.00 Build 0)  -->
<!DOCTYPE svg PUBLIC "-//W3C//DTD SVG 1.1//EN" "http://www.w3.org/Graphics/SVG/1.1/DTD/svg11.dtd">
<svg version="1.1" id="Layer_1" xmlns="http://www.w3.org/2000/svg" xmlns:xlink="http://www.w3.org/1999/xlink" x="0px" y="0px"
	 width="150px" height="150px" viewBox="0 0 150 150" enable-background="new 0 0 150 150" xml:space="preserve">
<g>
	<g>
		<g>
			<rect x="25.75" y="26.035" fill="#FFFFFF" width="98.5" height="11.5"/>
			<path fill="#282D33" d="M126.25,39.535H23.75v-15.5h102.5V39.535z M27.75,35.535h94.5v-7.5h-94.5V35.535z"/>
		</g>
		<g>
			<path fill="#FFFFFF" d="M30.25,31.702h3.738H30.25z"/>
			<rect x="30.25" y="29.702" fill="#282D33" width="3.738" height="4"/>
		</g>
		<g>
			<path fill="#FFFFFF" d="M36.722,31.702h3.74H36.722z"/>
			<rect x="36.722" y="29.702" fill="#282D33" width="3.74" height="4"/>
		</g>
		<g>
			<path fill="#FFFFFF" d="M43.193,31.702h3.74H43.193z"/>
			<rect x="43.193" y="29.702" fill="#282D33" width="3.74" height="4"/>
		</g>
		<g>
			<polygon fill="#282D33" points="126.25,95.035 112.877,95.035 112.877,91.035 122.25,91.035 122.25,39.535 27.75,39.535
				27.75,91.035 37.123,91.035 37.123,95.035 23.75,95.035 23.75,35.535 126.25,35.535 			"/>
		</g>
	</g>
	<rect x="31.75" y="44.535" fill="#B7BEC0" width="86.5" height="41.5"/>
	<g>
		<g>
			<path fill="#FFFFFF" d="M106.07,92.893c0,17.159-13.911,31.072-31.07,31.072c-17.161,0-31.07-13.913-31.07-31.072
				c0-17.155,13.909-31.068,31.07-31.068C92.159,61.824,106.07,75.737,106.07,92.893z"/>
			<path fill="#282D33" d="M75,125.965c-18.235,0-33.07-14.836-33.07-33.072c0-18.233,14.835-33.068,33.07-33.068
				s33.07,14.835,33.07,33.068C108.07,111.129,93.235,125.965,75,125.965z M75,63.824c-16.029,0-29.07,13.041-29.07,29.068
				c0,16.029,13.041,29.072,29.07,29.072s29.07-13.043,29.07-29.072C104.07,76.865,91.029,63.824,75,63.824z"/>
		</g>
		<path fill="#30C0D8" d="M75,68.082c-0.115,0-0.229,0.008-0.342,0.008v24.65h25.15C99.727,79.109,88.652,68.082,75,68.082z"/>
		<g>
			<g>
				<path fill="#FFFFFF" d="M81.251,54.029c-0.004,0.744-0.604,1.346-1.352,1.346h-9.806c-0.742,0-1.345-0.602-1.342-1.346
					l-0.003-6.373c0.003-0.746,0.603-1.35,1.345-1.35l9.806,0.002c0.747,0,1.352,0.602,1.348,1.348L81.251,54.029z"/>
				<path fill="#282D33" d="M79.899,57.375h-9.806c-0.896,0-1.737-0.35-2.369-0.984c-0.631-0.633-0.976-1.475-0.973-2.368
					l-0.003-6.364c0.008-1.852,1.508-3.352,3.345-3.352l9.807,0.002c0.898,0,1.743,0.351,2.376,0.987
					c0.631,0.634,0.976,1.478,0.971,2.371l0.004,6.361C83.241,55.879,81.737,57.375,79.899,57.375z M70.751,53.375h8.5l-0.004-5.066
					l-8.498-0.002L70.751,53.375z"/>
			</g>
		</g>
		<g>
			<g>
				<g>
					<g>
						<g>
							<path fill="#FFFFFF" d="M52.896,65.574l-2.229-3.283c-0.262-0.383-0.161-0.905,0.222-1.164l5.051-3.43
								c0.381-0.258,0.903-0.161,1.164,0.224l2.229,3.278L52.896,65.574z"/>
							<path fill="#282D33" d="M51.241,66.697l-2.229-3.283c-0.426-0.622-0.584-1.379-0.441-2.125
								c0.143-0.748,0.567-1.394,1.197-1.819l5.047-3.427c0.625-0.426,1.381-0.583,2.127-0.439c0.745,0.142,1.391,0.566,1.816,1.195
								l2.228,3.277l-3.309,2.248l-1.576-2.318l-3.128,2.122l1.578,2.322L51.241,66.697z"/>
						</g>
					</g>
				</g>
			</g>
			<g>
				<g>
					<g>
						<g>
							<path fill="#FFFFFF" d="M97.104,65.574l2.229-3.283c0.262-0.383,0.16-0.904-0.223-1.164l-5.05-3.43
								c-0.382-0.258-0.902-0.161-1.164,0.225l-2.229,3.277L97.104,65.574z"/>
							<path fill="#282D33" d="M98.759,66.697l-3.311-2.247l1.576-2.321l-3.127-2.123l-1.578,2.318l-3.307-2.249l2.229-3.278
								c0.878-1.293,2.646-1.632,3.94-0.754l5.052,3.43c0.627,0.425,1.051,1.07,1.193,1.816s-0.015,1.502-0.442,2.129L98.759,66.697
								z"/>
						</g>
					</g>
				</g>
			</g>
		</g>
		<circle fill="#FFFFFF" cx="74.999" cy="92.895" r="16.212"/>
		<g>
			<g>
				<path fill="#FFFFFF" d="M74.777,69.769v3.888V69.769z"/>
				<rect x="72.777" y="69.769" fill="#282D33" width="4" height="3.888"/>
			</g>
			<g>
				<path fill="#FFFFFF" d="M63.245,72.977l1.943,3.367L63.245,72.977z"/>

					<rect x="62.273" y="72.661" transform="matrix(0.4999 0.8661 -0.8661 0.4999 96.7806 -18.2781)" fill="#282D33" width="3.888" height="4"/>
			</g>
			<g>
				<path fill="#FFFFFF" d="M54.86,81.521l3.368,1.949L54.86,81.521z"/>

					<rect x="54.599" y="80.496" transform="matrix(0.8655 0.5009 -0.5009 0.8655 48.9258 -17.2277)" fill="#282D33" width="3.892" height="3.999"/>
			</g>
			<g>
				<path fill="#FFFFFF" d="M51.873,93.115h3.889H51.873z"/>
				<rect x="51.873" y="91.115" fill="#282D33" width="3.889" height="4"/>
			</g>
			<g>
				<path fill="#FFFFFF" d="M55.08,104.65l3.369-1.943L55.08,104.65z"/>

					<rect x="54.765" y="101.733" transform="matrix(0.4996 0.8663 -0.8663 0.4996 118.2224 2.7112)" fill="#282D33" width="4" height="3.89"/>
			</g>
			<g>
				<path fill="#FFFFFF" d="M63.625,113.033l1.947-3.367L63.625,113.033z"/>

					<rect x="62.598" y="109.404" transform="matrix(0.8656 0.5007 -0.5007 0.8656 64.4303 -17.3815)" fill="#282D33" width="4" height="3.89"/>
			</g>
			<g>
				<path fill="#FFFFFF" d="M75.219,116.022l0.002-3.89L75.219,116.022z"/>
				<rect x="73.22" y="112.132" fill="#282D33" width="4" height="3.891"/>
			</g>
			<g>
				<path fill="#FFFFFF" d="M86.754,112.814l-1.943-3.371L86.754,112.814z"/>

					<rect x="83.838" y="109.129" transform="matrix(0.4996 0.8662 -0.8662 0.4996 139.1841 -18.7036)" fill="#282D33" width="3.889" height="4"/>
			</g>
			<g>
				<path fill="#FFFFFF" d="M95.137,104.27l-3.366-1.948L95.137,104.27z"/>

					<rect x="91.509" y="101.294" transform="matrix(0.8657 0.5006 -0.5006 0.8657 64.2655 -32.9091)" fill="#282D33" width="3.89" height="4.001"/>
			</g>
			<g>
				<path fill="#FFFFFF" d="M98.125,92.678l-3.89-0.006L98.125,92.678z"/>
				<rect x="94.235" y="90.675" transform="matrix(1 0.0015 -0.0015 1 0.1397 -0.1448)" fill="#282D33" width="3.89" height="4"/>
			</g>
			<g>
				<path fill="#FFFFFF" d="M94.917,81.143l-3.37,1.942L94.917,81.143z"/>

					<rect x="91.232" y="80.169" transform="matrix(0.4996 0.8663 -0.8663 0.4996 117.7914 -39.6717)" fill="#282D33" width="4" height="3.89"/>
			</g>
			<g>
				<path fill="#FFFFFF" d="M86.373,72.758l-1.947,3.365L86.373,72.758z"/>

					<rect x="83.399" y="72.496" transform="matrix(0.8657 0.5005 -0.5005 0.8657 48.7231 -32.7477)" fill="#282D33" width="4" height="3.89"/>
			</g>
		</g>
		<g>
			<path fill="#FFFFFF" d="M76.73,90.732l10.607-10.812L76.73,90.732z"/>

				<rect x="80.034" y="77.753" transform="matrix(0.7138 0.7004 -0.7004 0.7138 83.2384 -33.0322)" fill="#282D33" width="4" height="15.146"/>
		</g>
		<g>
			<g>
				<path fill="#FFFFFF" d="M77.977,92.869c-0.002-1.646-1.336-2.977-2.979-2.98c-1.643,0.002-2.979,1.334-2.976,2.979
					c0,1.643,1.331,2.977,2.978,2.977C76.641,95.846,77.975,94.511,77.977,92.869z"/>
				<path fill="#282D33" d="M75.003,97.845L75.003,97.845c-0.001,0-0.004,0-0.005,0c-2.743,0-4.976-2.232-4.976-4.977
					c-0.005-2.739,2.226-4.976,4.973-4.979c2.747,0.006,4.979,2.239,4.981,4.978C79.974,95.613,77.742,97.845,75.003,97.845z
					 M74.993,91.889c-0.532,0-0.972,0.438-0.971,0.976c0,0.542,0.438,0.98,0.978,0.98h0.003c0.536,0,0.973-0.438,0.974-0.979
					C75.976,92.33,75.534,91.89,74.993,91.889z"/>
			</g>
		</g>
		<g>
			<rect x="73" y="55.201" fill="#282D33" width="4" height="4.691"/>
		</g>
	</g>
</g>
</svg>
