<?xml version="1.0" encoding="utf-8"?>
<!-- Generator: Adobe Illustrator 16.0.0, SVG Export Plug-In . SVG Version: 6.00 Build 0)  -->
<!DOCTYPE svg PUBLIC "-//W3C//DTD SVG 1.1//EN" "http://www.w3.org/Graphics/SVG/1.1/DTD/svg11.dtd">
<svg version="1.1" id="Layer_1" xmlns="http://www.w3.org/2000/svg" xmlns:xlink="http://www.w3.org/1999/xlink" x="0px" y="0px"
	 width="150px" height="150px" viewBox="0 0 150 150" enable-background="new 0 0 150 150" xml:space="preserve">
<g>
	<g>
		<polygon fill="#FFFFFF" points="91.163,27.242 41.329,27.242 41.329,46.08 41.329,70.919 41.329,121.669 110.417,121.669
			110.417,70.919 110.417,46.5 		"/>
		<polygon fill="#282D33" points="112.417,123.669 39.329,123.669 39.329,25.242 91.163,25.242 91.163,29.242 43.329,29.242
			43.329,119.669 108.417,119.669 108.417,46.5 112.417,46.5 		"/>
	</g>
	<g>
		<polygon fill="#B7BEC0" points="94.41,43.252 112.643,43.252 94.41,25.017 		"/>
	</g>
	<g>
		<rect x="50.568" y="45.592" fill="#282D33" width="19.844" height="4"/>
	</g>
	<g>
		<rect x="50.205" y="59.916" fill="#282D33" width="47.13" height="4"/>
	</g>
	<g>
		<rect x="50.205" y="70.377" fill="#282D33" width="47.13" height="4"/>
	</g>
	<g>
		<rect x="50.205" y="80.84" fill="#282D33" width="47.13" height="4"/>
	</g>
	<g>
		<rect x="50.205" y="91.3" fill="#282D33" width="46.838" height="4"/>
	</g>
	<g>
		<rect x="50.205" y="103.854" fill="#282D33" width="13.548" height="4"/>
	</g>
</g>
</svg>
