<?xml version="1.0" encoding="utf-8"?>
<!-- Generator: Adobe Illustrator 16.0.0, SVG Export Plug-In . SVG Version: 6.00 Build 0)  -->
<!DOCTYPE svg PUBLIC "-//W3C//DTD SVG 1.1//EN" "http://www.w3.org/Graphics/SVG/1.1/DTD/svg11.dtd">
<svg version="1.1" id="Layer_1" xmlns="http://www.w3.org/2000/svg" xmlns:xlink="http://www.w3.org/1999/xlink" x="0px" y="0px"
	 width="150px" height="150px" viewBox="0 0 150 150" enable-background="new 0 0 150 150" xml:space="preserve">
<g>
	<g>
		<path fill="#282D33" d="M32.365,50.871h-4V32.799c0-2.659,2.03-4.823,4.527-4.823h84.217c2.495,0,4.525,2.164,4.525,4.823v11.359
			h-4V32.799c0-0.471-0.277-0.823-0.525-0.823H32.893c-0.249,0-0.527,0.353-0.527,0.823V50.871z"/>
	</g>
	<g>
		<g>
			<g>
				<rect x="37.977" y="38.662" fill="#30C0D8" width="74.049" height="59.122"/>
			</g>
		</g>
	</g>
	<g>
		<path fill="#FFFFFF" d="M125.32,53.523c0-1.561-1.131-2.825-2.525-2.825H80.086l-3.637,6.597H27.207
			c-1.393,0-2.527,1.264-2.527,2.825l5.055,40.035c0,1.56,1.133,2.825,2.527,2.825h84.217c1.396,0,2.525-1.266,2.525-2.825
			L125.32,53.523z"/>
		<path fill="#282D33" d="M116.479,104.98H32.262c-2.452,0-4.455-2.088-4.525-4.685L22.68,60.12c0-2.661,2.03-4.825,4.527-4.825
			h48.062l3.637-6.597h43.89c2.495,0,4.525,2.165,4.525,4.825l-0.019,0.269l-6.3,46.515
			C120.927,102.897,118.927,104.98,116.479,104.98z M26.684,60.025l5.051,40.13c0,0.465,0.284,0.825,0.527,0.825h84.217
			c0.248,0,0.525-0.353,0.525-0.825l0.019-0.269l6.293-46.465c-0.037-0.415-0.295-0.724-0.521-0.724H81.267l-3.637,6.597H27.207
			C26.979,59.295,26.719,59.607,26.684,60.025z"/>
	</g>
	<g>
		<g>
			<g>
				<path fill="#282D33" d="M76.295,118.578h-2.588c-6.46,0-10.316-3.389-10.316-9.066V89.843c0-6.233,4.628-11.305,10.316-11.305
					h2.588c5.688,0,10.314,5.071,10.314,11.305v19.669C86.609,115.189,82.753,118.578,76.295,118.578z M73.707,82.538
					c-3.483,0-6.316,3.276-6.316,7.305v19.669c0,1.254,0,5.066,6.316,5.066h2.588c6.314,0,6.314-3.813,6.314-5.066V89.843
					c0-4.028-2.833-7.305-6.314-7.305H73.707z"/>
			</g>
		</g>
		<g>
			<rect x="60.25" y="94.039" fill="#B7BEC0" width="29.502" height="25.985"/>
			<path fill="#282D33" d="M87.752,96.039v21.985H62.25V96.039H87.752L87.752,96.039z M91.752,92.039h-4H62.25h-4v4v21.985v4h4
				h25.502h4v-4V96.039V92.039L91.752,92.039z"/>
		</g>
		<path fill="#282D33" d="M75.002,100.695c-1.299,0-2.354,1.176-2.354,2.631c0,0.96,0.461,1.795,1.146,2.254l-0.533,6.482h1.74
			h1.736l-0.531-6.482c0.686-0.459,1.146-1.294,1.146-2.254C77.354,101.871,76.299,100.695,75.002,100.695L75.002,100.695z"/>
	</g>
	<g>
		<g>
			<g>

					<rect x="81.244" y="85.079" transform="matrix(0.251 0.968 -0.968 0.251 145.6698 -16.1075)" fill="#282D33" width="3.999" height="2.001"/>
			</g>
			<g>
				<path fill="#282D33" d="M88.78,86.711l-1.002-3.872l4.067-1.053l1.002,3.872L88.78,86.711z M96.915,84.605l-1.002-3.872
					l4.067-1.053l1.002,3.872L96.915,84.605z M105.05,82.5l-1.002-3.873l4.067-1.052l1.002,3.872L105.05,82.5z M113.185,80.395
					l-1.002-3.872l4.067-1.053l1.002,3.872L113.185,80.395z"/>
			</g>
			<g>

					<rect x="119.785" y="75.103" transform="matrix(0.2505 0.9681 -0.9681 0.2505 164.961 -60.8618)" fill="#282D33" width="4.001" height="2"/>
			</g>
		</g>
		<g>
			<g>

					<rect x="64.758" y="84.08" transform="matrix(0.968 0.2509 -0.2509 0.968 23.7018 -13.7458)" fill="#282D33" width="2.001" height="3.999"/>
			</g>
			<g>
				<path fill="#282D33" d="M60.222,86.711l-4.067-1.053l1.002-3.872l4.067,1.053L60.222,86.711z M52.087,84.605l-4.068-1.053
					l1.002-3.872l4.068,1.053L52.087,84.605z M43.951,82.5l-4.067-1.053l1.002-3.872l4.067,1.052L43.951,82.5z M35.816,80.395
					l-4.067-1.053l1.002-3.872l4.067,1.053L35.816,80.395z"/>
			</g>
			<g>

					<rect x="26.214" y="74.103" transform="matrix(0.9681 0.2505 -0.2505 0.9681 19.9275 -4.3904)" fill="#282D33" width="2" height="4"/>
			</g>
		</g>
	</g>
</g>
</svg>
