<?xml version="1.0" encoding="utf-8"?>
<!-- Generator: Adobe Illustrator 16.0.0, SVG Export Plug-In . SVG Version: 6.00 Build 0)  -->
<!DOCTYPE svg PUBLIC "-//W3C//DTD SVG 1.1//EN" "http://www.w3.org/Graphics/SVG/1.1/DTD/svg11.dtd">
<svg version="1.1" id="Layer_1" xmlns="http://www.w3.org/2000/svg" xmlns:xlink="http://www.w3.org/1999/xlink" x="0px" y="0px"
	 width="150px" height="150px" viewBox="0 0 150 150" enable-background="new 0 0 150 150" xml:space="preserve">
<g>
	<g>
		<g>
			<g>
				<g>
					<g>
						<path fill="#FFFFFF" d="M76.194,113.74c-5.488,0-10.834-1.127-15.887-3.354c-19.95-8.793-29.03-32.174-20.242-52.122
							c6.314-14.336,20.539-23.6,36.24-23.6c5.488,0,10.832,1.128,15.885,3.356c9.649,4.25,17.072,12.02,20.9,21.876
							s3.594,20.598-0.658,30.249c-6.314,14.332-20.539,23.594-36.235,23.594H76.194z"/>
						<g>
							<path fill="#282D33" d="M76.306,36.667c5.047,0,10.172,1.022,15.078,3.186c18.939,8.342,27.565,30.547,19.22,49.488
								c-6.185,14.035-19.972,22.4-34.409,22.4c-5.046,0-10.174-1.023-15.081-3.184c-18.94-8.348-27.562-30.547-19.217-49.484
								C48.077,45.038,61.869,36.667,76.306,36.667L76.306,36.667z M76.306,32.667c-16.494,0-31.438,9.731-38.07,24.793
								c-9.232,20.957,0.307,45.521,21.266,54.757c5.309,2.338,10.926,3.523,16.693,3.523c16.492,0,31.434-9.729,38.07-24.787
								c4.467-10.139,4.712-21.424,0.689-31.78c-4.021-10.354-11.818-18.517-21.957-22.983
								C87.689,33.852,82.073,32.667,76.306,32.667L76.306,32.667z"/>
						</g>
					</g>
				</g>
				<g>
					<path fill="#30C0D8" d="M113.41,79.014l-5.22,4.063l-9.413,7.922l-0.42-7.688l-6.108,1.102l-0.684-7.078l-4.2,2.244
						l-1.213-0.939l-3.618-3.614l-1.15,4.918l2.766,2.791l-12.106,11.77l-3.289,0.52l-0.018-6.35l2.367-9.598l-4.309-2.111
						l-0.438-4.13l5.459-5.734l4.044,0.752l1.621,2.502l5.979,1.054l-4.505-5.874l-4.589-3.029l0.398-1.606l5.999-0.666l-0.658-4.02
						l6.788-2.269l4.378,4.09l9.779,1.094c0,0,4.342-0.324,9.186-0.656C113.159,64.801,114.322,71.918,113.41,79.014z"/>
					<path fill="#30C0D8" d="M66.427,38.026l-3.441,2.514l-6.123,4.711c-0.164,0.13-0.248,0.336-0.218,0.54l0.707,4.856
						c0.031,0.198,0.208,0.393,0.346,0.445c0.186,0.078,0.393,0.059,0.557-0.057l3.454-2.421l1.888,6.706l-10.929,3.563
						l-4.624-1.533c-0.213-0.071-0.447-0.009-0.604,0.154l-2.146,2.301c-0.134,0.145-0.187,0.344-0.14,0.536l1.308,5.085
						l-3.819-4.309l-0.636-2.25C46.777,48.221,55.945,40.877,66.427,38.026z"/>
					<path fill="#30C0D8" d="M46.984,79.592l-0.441-7.255l6.309-5.75l5.612,12.537L43.512,91.822l0.001-4.369l3.419-7.594
						C46.973,79.775,46.988,79.684,46.984,79.592z"/>
					<path fill="#30C0D8" d="M69.121,50.653l-0.314-9.806c6.853-0.388,10.896,0.629,12.405,1.122l-4.943,6.74L69.121,50.653z"/>
				</g>
			</g>
		</g>
	</g>
	<g>
		<g>
			<g>
				<path fill="#282D33" d="M119.101,35.06c-0.265-0.45-0.574-0.862-0.921-1.226l2.895-2.761c0.56,0.587,1.057,1.247,1.476,1.962
					L119.101,35.06z"/>
			</g>
			<g>
				<path fill="#282D33" d="M38.851,124.24l-0.267-3.992c1.158-0.076,2.411-0.254,3.724-0.525l0.809,3.918
					C41.626,123.949,40.19,124.15,38.851,124.24z M34.398,124.098c-1.671-0.244-3.18-0.725-4.486-1.426l1.892-3.523
					c0.896,0.48,1.966,0.814,3.176,0.992L34.398,124.098z M47.209,122.58l-1.179-3.822c1.18-0.365,2.416-0.799,3.676-1.287
					l1.449,3.729C49.808,121.723,48.479,122.188,47.209,122.58z M54.979,119.58l-1.66-3.641c1.155-0.525,2.349-1.105,3.546-1.723
					l1.832,3.555C57.443,118.418,56.193,119.025,54.979,119.58z M26.219,119.418c-0.891-1.266-1.522-2.754-1.879-4.43l3.912-0.832
					c0.243,1.143,0.66,2.139,1.238,2.959L26.219,119.418z M62.32,115.811l-1.975-3.479c1.125-0.639,2.273-1.32,3.413-2.021
					l2.099,3.404C64.677,114.443,63.487,115.146,62.32,115.811z M69.314,111.504l-2.207-3.336c1.088-0.719,2.184-1.469,3.284-2.246
					l2.307,3.27C71.564,109.99,70.436,110.762,69.314,111.504z M28.008,110.648l-3.996-0.186c0.063-1.352,0.254-2.803,0.57-4.314
					l3.916,0.818C28.225,108.27,28.061,109.51,28.008,110.648z M76.01,106.783l-2.396-3.203c1.051-0.787,2.104-1.596,3.16-2.43
					l2.479,3.139C78.17,105.146,77.089,105.977,76.01,106.783z M29.491,103.277l-3.804-1.236c0.411-1.268,0.902-2.59,1.46-3.934
					l3.694,1.533C30.325,100.887,29.871,102.109,29.491,103.277z M82.432,101.715l-2.559-3.076c1.014-0.842,2.026-1.705,3.039-2.588
					l2.63,3.014C84.506,99.969,83.469,100.852,82.432,101.715z M88.588,96.342l-2.699-2.951c0.881-0.807,1.76-1.629,2.637-2.465
					l0.275-0.264l2.771,2.885l-0.286,0.273C90.391,94.676,89.49,95.516,88.588,96.342z M32.457,96.076l-3.593-1.76
					c0.586-1.195,1.23-2.43,1.916-3.668l3.499,1.936C33.627,93.766,33.014,94.939,32.457,96.076z M94.486,90.689l-2.833-2.824
					c0.947-0.951,1.876-1.906,2.784-2.861l2.899,2.756C96.406,88.738,95.456,89.717,94.486,90.689z M100.117,84.764l-2.966-2.684
					c0.903-0.998,1.783-1.996,2.641-2.99l3.031,2.609C101.944,82.719,101.042,83.742,100.117,84.764z M105.451,78.563l-3.1-2.527
					c0.851-1.044,1.676-2.085,2.475-3.123l3.169,2.439C107.175,76.418,106.326,77.488,105.451,78.563z M110.447,72.067l-3.242-2.344
					c0.784-1.084,1.549-2.18,2.274-3.256l3.317,2.234C112.048,69.814,111.257,70.947,110.447,72.067z M115.032,65.25l-3.397-2.113
					c0.709-1.14,1.389-2.284,2.019-3.4l3.483,1.967C116.479,62.87,115.771,64.062,115.032,65.25z M119.085,58.055l-3.575-1.795
					c0.604-1.205,1.162-2.4,1.656-3.552l3.676,1.578C120.316,55.51,119.725,56.779,119.085,58.055z M122.354,50.38l-3.784-1.296
					c0.438-1.276,0.797-2.516,1.068-3.683l3.896,0.906C123.232,47.606,122.836,48.976,122.354,50.38z M124.221,42.034l-3.986-0.321
					c0.04-0.503,0.061-0.99,0.061-1.465c0-0.739-0.051-1.444-0.151-2.097l3.953-0.609c0.132,0.853,0.198,1.764,0.198,2.706
					C124.295,40.823,124.271,41.424,124.221,42.034z"/>
			</g>
			<g>
				<path fill="#282D33" d="M36.282,89.15l-3.408-2.094c0.351-0.57,0.71-1.145,1.078-1.723l3.373,2.15
					C36.969,88.043,36.621,88.598,36.282,89.15z"/>
			</g>
		</g>
		<g>
			<path fill="#282D33" d="M37.234,124.281c-4.291,0.002-7.697-1.217-10.025-3.656l2.895-2.762
				c3.535,3.705,11.633,3.168,22.219-1.477c11.361-4.984,24.219-14.027,36.203-25.461c11.986-11.436,21.623-23.855,27.135-34.967
				c5.137-10.354,6.056-18.419,2.52-22.124c-4.192-4.396-15.031-2.691-28.286,4.449l-1.896-3.522
				c15.363-8.274,27.42-9.619,33.077-3.688c4.835,5.067,4.186,14.536-1.83,26.664c-5.715,11.519-15.644,24.333-27.957,36.083
				c-12.314,11.748-25.581,21.063-37.357,26.229C47.502,122.869,41.855,124.281,37.234,124.281z"/>
		</g>
		<g>
			<path fill="#282D33" d="M90.286,59.089C63.945,33.958,38.813,24.871,31.865,32.151l-2.895-2.762
				c9.616-10.076,37.762,1.698,64.077,26.806L90.286,59.089z"/>
		</g>
		<g>
			<g>
				<path fill="#282D33" d="M88.096,114.338c-0.585-0.33-1.174-0.67-1.766-1.018l2.027-3.447c0.57,0.336,1.138,0.662,1.701,0.979
					L88.096,114.338z"/>
			</g>
			<g>
				<path fill="#282D33" d="M111.81,122.59c-1.353-0.057-2.806-0.232-4.318-0.521l0.748-3.928c1.323,0.25,2.581,0.402,3.741,0.453
					L111.81,122.59z M116.313,122.305l-0.744-3.932c1.19-0.225,2.23-0.611,3.093-1.15l2.121,3.391
					C119.497,121.418,117.993,121.986,116.313,122.305z M103.353,121.053c-1.282-0.381-2.624-0.836-3.988-1.355l1.421-3.738
					c1.271,0.482,2.518,0.906,3.704,1.258L103.353,121.053z M95.504,118.096c-1.222-0.549-2.484-1.154-3.752-1.799l1.814-3.564
					c1.209,0.615,2.412,1.191,3.575,1.713L95.504,118.096z M124.257,117.076l-3.431-2.057c0.521-0.869,0.882-1.912,1.071-3.1
					l3.95,0.631C125.576,114.246,125.042,115.768,124.257,117.076z M122,108.342c-0.091-1.152-0.291-2.402-0.596-3.711l3.896-0.904
					c0.35,1.504,0.58,2.951,0.687,4.303L122,108.342z M120.332,100.926c-0.402-1.174-0.878-2.4-1.414-3.646l3.675-1.58
					c0.576,1.34,1.089,2.662,1.522,3.928L120.332,100.926z M117.248,93.707c-0.572-1.141-1.202-2.316-1.87-3.498l3.481-1.969
					c0.7,1.236,1.36,2.473,1.963,3.67L117.248,93.707z M113.344,86.789c-0.687-1.102-1.418-2.229-2.172-3.346l3.314-2.238
					c0.782,1.158,1.54,2.326,2.253,3.471L113.344,86.789z M108.879,80.168c-0.77-1.063-1.569-2.131-2.398-3.205l3.166-2.443
					c0.854,1.105,1.678,2.207,2.472,3.302L108.879,80.168z M103.986,73.826c-0.835-1.021-1.695-2.046-2.58-3.069l3.027-2.615
					c0.909,1.053,1.792,2.104,2.65,3.152L103.986,73.826z M98.746,67.75c-0.891-0.98-1.803-1.96-2.735-2.938l2.895-2.761
					c0.955,1.002,1.89,2.006,2.802,3.01L98.746,67.75z M93.204,61.939c-0.939-0.938-1.897-1.876-2.873-2.808l2.762-2.893
					c0.999,0.952,1.979,1.91,2.939,2.871L93.204,61.939z M87.393,56.391c-0.998-0.91-1.998-1.801-3-2.671l2.624-3.019
					c1.025,0.891,2.049,1.801,3.071,2.732L87.393,56.391z M81.33,51.124c-1.042-0.862-2.084-1.702-3.124-2.519l2.471-3.146
					c1.066,0.837,2.135,1.698,3.204,2.582L81.33,51.124z M75.02,46.168c-1.087-0.808-2.171-1.59-3.249-2.346l2.296-3.275
					c1.108,0.776,2.223,1.58,3.34,2.411L75.02,46.168z M68.458,41.575c-1.125-0.738-2.262-1.457-3.377-2.139l2.084-3.415
					c1.152,0.704,2.326,1.447,3.488,2.21L68.458,41.575z M61.638,37.418c-1.179-0.66-2.359-1.292-3.51-1.875l1.81-3.567
					c1.199,0.608,2.431,1.266,3.657,1.954L61.638,37.418z M54.55,33.834c-1.239-0.555-2.466-1.062-3.646-1.507l1.413-3.743
					c1.253,0.475,2.554,1.012,3.864,1.598L54.55,33.834z M47.197,31.079c-1.301-0.383-2.563-0.689-3.75-0.91l0.733-3.932
					c1.319,0.245,2.714,0.584,4.144,1.004L47.197,31.079z M36.129,29.978l-0.779-3.923c1.373-0.273,2.887-0.382,4.508-0.32
					l-0.148,3.996C38.407,29.684,37.197,29.766,36.129,29.978z"/>
			</g>
			<g>
				<path fill="#282D33" d="M31.865,32.151l-2.895-2.761c0.561-0.589,1.197-1.116,1.893-1.568l2.182,3.352
					C32.61,31.458,32.213,31.786,31.865,32.151z"/>
			</g>
		</g>
		<g>
			<path fill="#282D33" d="M122.838,118.941l-2.895-2.76c6.946-7.281-3.313-31.961-29.657-57.092
				C63.945,33.958,38.813,24.871,31.865,32.151c-4.499,4.713-1.731,16.352,7.221,30.377l-3.371,2.152
				C25.418,48.551,22.96,35.688,28.971,29.389c9.615-10.076,37.762,1.698,64.077,26.806
				C119.365,81.303,132.451,108.865,122.838,118.941z"/>
		</g>
	</g>
</g>
</svg>
