<?xml version="1.0" encoding="utf-8"?>
<!-- Generator: Adobe Illustrator 16.0.0, SVG Export Plug-In . SVG Version: 6.00 Build 0)  -->
<!DOCTYPE svg PUBLIC "-//W3C//DTD SVG 1.1//EN" "http://www.w3.org/Graphics/SVG/1.1/DTD/svg11.dtd">
<svg version="1.1" id="Layer_1" xmlns="http://www.w3.org/2000/svg" xmlns:xlink="http://www.w3.org/1999/xlink" x="0px" y="0px"
	 width="150px" height="150px" viewBox="0 0 150 150" enable-background="new 0 0 150 150" xml:space="preserve">
<g>
	<rect x="692.27" y="2011.233" fill="#B7BEC0" width="70.518" height="43.065"/>
	<g>
		<path fill="#FFFFFF" d="M673.977,2060.119v5.062c0,0,3.703,2.765,6.423,2.765h34.073h26.111h34.072
			c2.721,0,6.424-2.765,6.424-2.765v-5.062H673.977z"/>
		<path fill="#282D33" d="M774.656,2069.945h-94.257c-3.29,0-7.187-2.838-7.62-3.162l-0.803-0.6v-8.064H783.08v8.064l-0.804,0.6
			C781.844,2067.107,777.947,2069.945,774.656,2069.945z M675.977,2064.131c1.324,0.852,3.213,1.814,4.423,1.814h94.257
			c1.24,0,3.169-1.015,4.424-1.816v-2.01H675.977V2064.131z"/>
	</g>
	<g>
		<path fill="#FFFFFF" d="M702.162,2039.818h8.764h33.205h8.764c2.029,3.779,6.016,6.354,10.605,6.354
			c4.836,0,8.994-2.862,10.904-6.979h-10.246l-2.918-5.051l2.918-5.051h10.246c-1.91-4.116-6.068-6.978-10.904-6.978
			c-4.59,0-8.576,2.572-10.605,6.354l-8.764-0.002l-33.205,0.002h-8.764c-2.027-3.781-6.016-6.354-10.604-6.354
			c-4.836,0-8.996,2.861-10.906,6.978h10.247l2.915,5.051l-2.915,5.051h-10.247c1.91,4.116,6.07,6.979,10.904,6.979
			C696.148,2046.172,700.135,2043.598,702.162,2039.818z"/>
		<path fill="#282D33" d="M763.5,2048.172c-4.766,0-9.16-2.406-11.741-6.354h-48.46c-2.58,3.947-6.976,6.354-11.742,6.354
			c-5.434,0-10.426-3.194-12.719-8.137l-1.317-2.842h12.224l1.762-3.051l-1.762-3.051h-12.224l1.317-2.842
			c2.293-4.942,7.286-8.136,12.721-8.136c4.766,0,9.16,2.405,11.74,6.354l48.46-0.001c2.58-3.947,6.975-6.353,11.741-6.353
			c5.432,0,10.424,3.193,12.718,8.136l1.319,2.842h-12.225l-1.762,3.051l1.762,3.051h12.225l-1.319,2.842
			C773.924,2044.978,768.932,2048.172,763.5,2048.172z M700.967,2037.818h53.125l0.565,1.055c1.754,3.268,5.142,5.299,8.843,5.299
			c2.704,0,5.256-1.11,7.11-2.979h-7.606l-4.072-7.051l4.072-7.051h7.606c-1.854-1.868-4.406-2.978-7.11-2.978
			c-3.701,0-7.09,2.03-8.843,5.299l-0.565,1.055l-9.962-0.002l-43.164,0.002l-0.565-1.055c-1.754-3.269-5.142-5.299-8.842-5.299
			c-2.706,0-5.259,1.109-7.113,2.978h7.609l4.069,7.051l-4.069,7.051h-7.609c1.854,1.869,4.406,2.979,7.111,2.979
			c3.701,0,7.09-2.031,8.844-5.299L700.967,2037.818z"/>
	</g>
	<g>
		<path fill="#282D33" d="M770.787,2017.299h-4v-9.246c0-0.452-0.368-0.819-0.82-0.819h-76.879c-0.451,0-0.818,0.367-0.818,0.819
			v9.246h-4v-9.246c0-2.657,2.162-4.819,4.818-4.819h76.879c2.658,0,4.82,2.162,4.82,4.819V2017.299z"/>
	</g>
	<g>
		<g>
			<rect x="766.787" y="2050.549" fill="#282D33" width="4" height="9.831"/>
		</g>
		<g>
			<rect x="684.27" y="2050.549" fill="#282D33" width="4" height="9.831"/>
		</g>
	</g>
</g>
<g>
	<rect x="39.27" y="52.233" fill="#B7BEC0" width="70.518" height="43.065"/>
	<g>
		<path fill="#FFFFFF" d="M20.977,101.119v5.062c0,0,3.703,2.765,6.423,2.765h34.073h26.111h34.072c2.721,0,6.424-2.765,6.424-2.765
			v-5.062H20.977z"/>
		<path fill="#282D33" d="M121.656,110.945H27.399c-3.29,0-7.187-2.838-7.62-3.162l-0.803-0.6v-8.064H130.08v8.064l-0.804,0.6
			C128.844,108.107,124.947,110.945,121.656,110.945z M22.977,105.131c1.324,0.852,3.213,1.814,4.423,1.814h94.257
			c1.24,0,3.169-1.015,4.424-1.816v-2.01H22.977V105.131z"/>
	</g>
	<g>
		<path fill="#FFFFFF" d="M49.162,80.818h8.764h33.205h8.764c2.029,3.779,6.016,6.354,10.605,6.354
			c4.836,0,8.994-2.862,10.904-6.979h-10.246l-2.918-5.051l2.918-5.051h10.246c-1.91-4.116-6.068-6.978-10.904-6.978
			c-4.59,0-8.576,2.572-10.605,6.354l-8.764-0.002l-33.205,0.002h-8.764c-2.027-3.781-6.016-6.354-10.604-6.354
			c-4.836,0-8.996,2.861-10.906,6.978h10.247l2.915,5.051l-2.915,5.051H27.652c1.91,4.116,6.07,6.979,10.904,6.979
			C43.148,87.172,47.135,84.598,49.162,80.818z"/>
		<path fill="#282D33" d="M110.5,89.172c-4.766,0-9.16-2.406-11.741-6.354h-48.46c-2.58,3.947-6.976,6.354-11.742,6.354
			c-5.434,0-10.426-3.194-12.719-8.137l-1.317-2.842h12.224l1.762-3.051l-1.762-3.051H24.521l1.317-2.842
			c2.293-4.942,7.286-8.136,12.721-8.136c4.766,0,9.16,2.405,11.74,6.354l48.46-0.001c2.58-3.947,6.975-6.353,11.741-6.353
			c5.432,0,10.424,3.193,12.718,8.136l1.319,2.842h-12.225l-1.762,3.051l1.762,3.051h12.225l-1.319,2.842
			C120.924,85.978,115.932,89.172,110.5,89.172z M47.967,78.818h53.125l0.565,1.055c1.754,3.268,5.142,5.299,8.843,5.299
			c2.704,0,5.256-1.11,7.11-2.979h-7.606l-4.072-7.051l4.072-7.051h7.606c-1.854-1.868-4.406-2.978-7.11-2.978
			c-3.701,0-7.09,2.03-8.843,5.299l-0.565,1.055l-9.962-0.002l-43.164,0.002L47.4,70.413c-1.754-3.269-5.142-5.299-8.842-5.299
			c-2.706,0-5.259,1.109-7.113,2.978h7.609l4.069,7.051l-4.069,7.051h-7.609c1.854,1.869,4.406,2.979,7.111,2.979
			c3.701,0,7.09-2.031,8.844-5.299L47.967,78.818z"/>
	</g>
	<g>
		<path fill="#282D33" d="M117.787,58.299h-4v-9.246c0-0.452-0.368-0.819-0.82-0.819H36.088c-0.451,0-0.818,0.367-0.818,0.819v9.246
			h-4v-9.246c0-2.657,2.162-4.819,4.818-4.819h76.879c2.658,0,4.82,2.162,4.82,4.819V58.299z"/>
	</g>
	<g>
		<g>
			<rect x="113.787" y="91.549" fill="#282D33" width="4" height="9.831"/>
		</g>
		<g>
			<rect x="31.27" y="91.549" fill="#282D33" width="4" height="9.831"/>
		</g>
	</g>
</g>
</svg>
