<?xml version="1.0" encoding="utf-8"?>
<!-- Generator: Adobe Illustrator 16.0.0, SVG Export Plug-In . SVG Version: 6.00 Build 0)  -->
<!DOCTYPE svg PUBLIC "-//W3C//DTD SVG 1.1//EN" "http://www.w3.org/Graphics/SVG/1.1/DTD/svg11.dtd">
<svg version="1.1" id="Layer_1" xmlns="http://www.w3.org/2000/svg" xmlns:xlink="http://www.w3.org/1999/xlink" x="0px" y="0px"
	 width="150px" height="150px" viewBox="0 0 150 150" enable-background="new 0 0 150 150" xml:space="preserve">
<g>
	<g>
		<path fill="#FFFFFF" d="M87.402,38.537c-6.654-6.646-15.488-10.309-24.87-10.303c-9.405-0.005-18.251,3.672-24.903,10.354
			c-6.619,6.653-10.267,15.475-10.265,24.823c0.009,19.394,15.789,35.177,35.183,35.165c9.412,0.002,18.262-3.686,24.918-10.364
			c6.619-6.65,10.256-15.464,10.256-24.813C97.721,54.015,94.059,45.183,87.402,38.537z"/>
		<path fill="#292E33" d="M62.526,100.576c-20.482,0-37.152-16.672-37.162-37.164c-0.002-9.886,3.85-19.203,10.847-26.235
			c7.026-7.058,16.367-10.944,26.305-10.944c9.942,0,19.271,3.866,26.3,10.888c7.032,7.021,10.905,16.354,10.905,26.278
			c0,9.888-3.849,19.201-10.838,26.224c-7.041,7.064-16.393,10.953-26.332,10.953c-0.001,0,0,0,0,0l-0.024-2l0.02-2
			c8.874,0,17.219-3.471,23.502-9.776c6.237-6.267,9.673-14.578,9.673-23.4c0-8.854-3.456-17.182-9.731-23.448
			c-6.274-6.267-14.599-9.718-23.438-9.718c-8.9,0-17.235,3.468-23.505,9.766c-6.245,6.277-9.684,14.592-9.682,23.412
			c0.008,18.288,14.885,33.166,33.162,33.166V100.576z"/>
	</g>
	<path fill="#33C1D8" d="M82.283,83.039c-5.281,5.3-12.284,8.211-19.736,8.215c-15.36,0.011-27.858-12.482-27.855-27.845
		c0.001-7.411,2.886-14.389,8.131-19.653c5.272-5.298,12.274-8.208,19.714-8.21c7.436-0.002,14.426,2.889,19.697,8.166
		c5.269,5.26,8.17,12.26,8.176,19.684C90.411,70.802,87.529,77.773,82.283,83.039z"/>

		<rect x="96.653" y="89.724" transform="matrix(0.7071 -0.7071 0.7071 0.7071 -43.0793 104.9053)" fill="#B7BEC0" width="16.894" height="29.466"/>
	<g>
		<path fill="#FFFFFF" d="M113.896,109.012l-9.218-9.219L113.896,109.012z"/>

			<rect x="102.768" y="102.402" transform="matrix(0.7071 0.7071 -0.7071 0.7071 105.8406 -46.6989)" fill="#FFFFFF" width="13.037" height="4"/>
	</g>
	<g>

			<rect x="90.418" y="93.103" transform="matrix(0.707 -0.7072 0.7072 0.707 -39.6998 96.7643)" fill="#FFFFFF" width="13.039" height="6.387"/>
		<path fill="#292E33" d="M94.586,105.994l-7.344-7.347l12.049-12.045l7.342,7.343L94.586,105.994z M92.898,98.649l1.688,1.688
			l6.391-6.393l-1.686-1.686L92.898,98.649z"/>
	</g>
	<g>
		<path fill="#FFFFFF" d="M122.341,112.48c0,5.09-4.129,9.217-9.222,9.218c-0.737-0.738-1.476-1.475-2.212-2.212
			c3.075-3.075,6.148-6.147,9.219-9.22C120.863,111.002,121.602,111.74,122.341,112.48z"/>
		<path fill="#292E33" d="M112.29,123.698l-4.21-4.215l12.043-12.044l4.218,4.213v0.828c0,6.184-5.034,11.216-11.221,11.218H112.29z
			 M113.735,119.486l0.17,0.17c3.355-0.367,6.027-3.037,6.393-6.39l-0.172-0.173L113.735,119.486z"/>
	</g>
	<g>
		<g>

				<rect x="87.839" y="92.702" transform="matrix(0.7073 0.7069 -0.7069 0.7073 93.4585 -36.3061)" fill="#292E33" width="5.462" height="4"/>
		</g>
		<g>

				<rect x="89.877" y="85.998" transform="matrix(0.7071 0.7071 -0.7071 0.7071 89.5838 -40.2783)" fill="#292E33" width="7.071" height="4"/>
		</g>
	</g>
	<g>
		<g>
			<g>
				<path fill="#FFFFFF" d="M62.595,96.104c-17.968,0-32.586-14.617-32.586-32.587c0-17.967,14.618-32.585,32.586-32.585
					c17.969,0,32.588,14.619,32.588,32.585C95.183,81.486,80.563,96.104,62.595,96.104z M62.595,34.931
					c-15.763,0-28.586,12.824-28.586,28.585c0,15.763,12.823,28.587,28.586,28.587c15.764,0,28.588-12.824,28.588-28.587
					C91.183,47.755,78.358,34.931,62.595,34.931z"/>
			</g>
			<g>
				<path fill="#FFFFFF" d="M62.595,96.104c-11.044,0-19.694-14.314-19.694-32.587c0-18.272,8.65-32.585,19.694-32.585
					c11.039,0,19.686,14.313,19.686,32.585C82.28,81.789,73.634,96.104,62.595,96.104z M62.595,34.931
					c-8.507,0-15.694,13.09-15.694,28.585c0,15.496,7.188,28.587,15.694,28.587c8.503,0,15.686-13.091,15.686-28.587
					C78.28,48.021,71.098,34.931,62.595,34.931z"/>
			</g>
			<g>
				<path fill="#FFFFFF" d="M62.595,96.104h-2V30.931h2c17.969,0,32.588,14.619,32.588,32.585
					C95.183,81.486,80.563,96.104,62.595,96.104z M64.595,35v57.036c14.834-1.031,26.588-13.428,26.588-28.519
					C91.183,48.427,79.429,36.03,64.595,35z"/>
			</g>
			<g>
				<path fill="#FFFFFF" d="M92.572,76.297h-59.96l-0.487-1.296c-1.404-3.733-2.116-7.597-2.116-11.484
					c0-3.892,0.713-7.757,2.12-11.49l0.487-1.294h59.956l0.488,1.293c1.408,3.732,2.122,7.597,2.122,11.491
					c0,3.894-0.714,7.759-2.122,11.487L92.572,76.297z M35.415,72.296h54.358c0.936-2.871,1.409-5.818,1.409-8.78
					c0-2.962-0.474-5.912-1.409-8.785H35.417c-0.935,2.874-1.408,5.823-1.408,8.785C34.009,66.475,34.481,69.422,35.415,72.296z"/>
			</g>
		</g>
	</g>
</g>
</svg>
