<?xml version="1.0" encoding="utf-8"?>
<!-- Generator: Adobe Illustrator 16.0.0, SVG Export Plug-In . SVG Version: 6.00 Build 0)  -->
<!DOCTYPE svg PUBLIC "-//W3C//DTD SVG 1.1//EN" "http://www.w3.org/Graphics/SVG/1.1/DTD/svg11.dtd">
<svg version="1.1" id="Layer_1" xmlns="http://www.w3.org/2000/svg" xmlns:xlink="http://www.w3.org/1999/xlink" x="0px" y="0px"
	 width="150px" height="150px" viewBox="0 0 150 150" enable-background="new 0 0 150 150" xml:space="preserve">
<g>
	<g>
		<g>
			<polygon fill="#282D33" points="74.471,72.158 72.471,68.694 75.198,67.119 77.932,68.683 75.947,72.155 75.208,71.732 			"/>
		</g>
		<g>
			<path fill="#282D33" d="M115.203,94.591l-3.271-1.868l1.984-3.474l3.271,1.869L115.203,94.591z M108.66,90.852l-3.271-1.869
				l1.984-3.473l3.271,1.869L108.66,90.852z M102.117,87.112l-3.271-1.87l1.984-3.473l3.271,1.87L102.117,87.112z M95.575,83.373
				l-3.271-1.869l1.984-3.473L97.56,79.9L95.575,83.373z M89.033,79.634l-3.271-1.87l1.984-3.472l3.271,1.87L89.033,79.634z
				 M82.49,75.895l-3.271-1.869l1.984-3.473l3.271,1.87L82.49,75.895z"/>
		</g>
		<g>
			<polygon fill="#282D33" points="120.47,98.449 119.74,97.185 118.473,96.461 118.896,95.723 118.47,94.985 119.734,94.256
				120.457,92.988 125.217,95.707 			"/>
		</g>
		<g>
			<path fill="#282D33" d="M80.931,121.275l-2-3.466l3.295-1.901l2,3.463L80.931,121.275z M87.521,117.471l-2-3.465l3.295-1.902
				l2,3.465L87.521,117.471z M94.11,113.666l-2-3.464l3.295-1.902l2,3.464L94.11,113.666z M100.7,109.861l-2-3.464l3.295-1.902
				l2,3.465L100.7,109.861z M107.29,106.059l-2-3.465l3.295-1.902l2,3.465L107.29,106.059z M113.88,102.254l-2-3.465l3.295-1.902
				l2,3.465L113.88,102.254z"/>
		</g>
		<g>
			<polygon fill="#282D33" points="74.909,124.751 72.176,123.188 74.16,119.716 74.898,120.139 75.636,119.713 77.636,123.176
				"/>
		</g>
		<g>
			<path fill="#282D33" d="M68.904,121.318l-3.271-1.869l1.985-3.473l3.271,1.869L68.904,121.318z M62.361,117.58l-3.271-1.87
				l1.985-3.472l3.271,1.869L62.361,117.58z M55.82,113.842l-3.271-1.87l1.984-3.474l3.271,1.87L55.82,113.842z M49.277,110.102
				l-3.27-1.869l1.984-3.473l3.271,1.869L49.277,110.102z M42.736,106.362l-3.271-1.869l1.986-3.473l3.271,1.87L42.736,106.362z
				 M36.194,102.623l-3.271-1.869l1.984-3.473l3.271,1.869L36.194,102.623z"/>
		</g>
		<g>
			<polygon fill="#282D33" points="29.653,98.884 24.892,96.166 29.641,93.424 30.37,94.688 31.637,95.41 31.215,96.149
				31.641,96.889 30.376,97.618 			"/>
		</g>
		<g>
			<path fill="#282D33" d="M34.936,94.985l-2-3.464l3.295-1.902l2,3.464L34.936,94.985z M41.524,91.181l-2-3.463l3.295-1.902
				l2,3.463L41.524,91.181z M48.114,87.376l-2-3.464l3.294-1.902l2,3.465L48.114,87.376z M54.703,83.572l-2-3.465l3.295-1.902
				l2,3.465L54.703,83.572z M61.293,79.768l-2-3.465l3.295-1.902l2,3.465L61.293,79.768z M67.882,75.963l-2-3.464l3.294-1.902
				l2,3.463L67.882,75.963z"/>
		</g>
	</g>
	<g>
		<g>
			<polygon fill="#B7BEC0" points="75.175,40.636 106.047,58.282 74.974,76.221 44.104,58.576 			"/>
			<path fill="#282D33" d="M74.974,78.221c-0.343,0-0.685-0.088-0.993-0.264L43.111,60.312c-0.621-0.356-1.006-1.016-1.008-1.732
				c-0.001-0.716,0.381-1.378,1-1.736l31.071-17.94c0.616-0.356,1.375-0.357,1.993-0.004l30.871,17.646
				c0.622,0.355,1.006,1.016,1.008,1.732c0.002,0.717-0.38,1.378-1,1.736L75.974,77.952C75.664,78.131,75.318,78.221,74.974,78.221z
				 M48.119,58.567l26.85,15.346l27.063-15.624L75.18,42.943L48.119,58.567z"/>
		</g>
		<g>
			<g>
				<polygon fill="#30C0D8" points="105.865,58.101 106.227,93.955 75.149,111.901 74.793,76.039 				"/>
			</g>
			<g>
				<g>
					<path fill="#282D33" d="M75.332,114.083c-0.342,0-0.685-0.088-0.992-0.263c-0.617-0.353-1.001-1.006-1.008-1.717L72.974,76.24
						c-0.007-0.722,0.375-1.392,1-1.752l31.073-17.938c0.617-0.355,1.375-0.357,1.991-0.004c0.618,0.352,1.001,1.005,1.009,1.717
						l0.361,35.856c0.007,0.722-0.375,1.392-1,1.753l-31.076,17.944C76.022,113.994,75.677,114.083,75.332,114.083z M76.985,77.368
						l0.312,31.271l27.1-15.648l-0.314-31.265L76.985,77.368z"/>
				</g>
			</g>
		</g>
		<g>
			<g>
				<polygon fill="#FFFFFF" points="74.974,76.221 75.332,112.083 44.459,94.438 44.104,58.576 				"/>
			</g>
			<g>
				<g>
					<path fill="#282D33" d="M75.352,114.083c-0.007,0-0.014,0-0.02,0c-0.343,0-0.686-0.088-0.993-0.263L43.466,96.174
						c-0.616-0.352-1-1.007-1.007-1.717l-0.355-35.862c-0.006-0.715,0.37-1.381,0.988-1.744s1.383-0.367,2.005-0.012l30.87,17.645
						c0.616,0.353,1,1.006,1.007,1.716l0.354,35.579c0.016,0.099,0.023,0.2,0.023,0.304
						C77.352,113.188,76.456,114.083,75.352,114.083z M46.447,93.27l26.85,15.347l-0.312-31.228L46.139,62.042L46.447,93.27z"/>
				</g>
			</g>
		</g>
	</g>
	<g>
		<g>
			<polygon fill="#B7BEC0" points="75.213,27.868 91.482,37.167 75.107,46.619 58.84,37.322 			"/>
			<path fill="#282D33" d="M75.107,48.619c-0.343,0-0.686-0.087-0.993-0.264l-16.267-9.297c-0.621-0.355-1.006-1.017-1.008-1.732
				c-0.001-0.716,0.381-1.378,1-1.736l16.373-9.454c0.615-0.356,1.375-0.357,1.992-0.004l16.27,9.298
				c0.621,0.355,1.006,1.016,1.008,1.732c0.001,0.717-0.381,1.378-1,1.737l-16.375,9.452C75.797,48.53,75.452,48.619,75.107,48.619z
				 M62.855,37.313l12.246,7l12.365-7.138l-12.249-7L62.855,37.313z"/>
		</g>
		<g>
			<g>
				<polygon fill="#30C0D8" points="91.301,36.984 91.49,55.88 75.115,65.336 74.926,46.438 				"/>
			</g>
			<g>
				<g>
					<path fill="#282D33" d="M75.297,67.518c-0.342,0-0.685-0.087-0.992-0.262c-0.617-0.353-1.001-1.007-1.008-1.717l-0.189-18.899
						c-0.008-0.722,0.375-1.392,1-1.752l16.375-9.452c0.615-0.355,1.373-0.357,1.99-0.004c0.618,0.352,1.002,1.005,1.01,1.717
						l0.189,18.895c0.007,0.722-0.375,1.391-1,1.752L76.297,67.25C75.987,67.428,75.642,67.518,75.297,67.518z M77.119,47.768
						l0.143,14.306l12.398-7.16L89.517,40.61L77.119,47.768z"/>
				</g>
			</g>
		</g>
		<g>
			<g>
				<polygon fill="#FFFFFF" points="75.107,46.619 75.297,65.518 59.027,56.219 58.84,37.322 				"/>
			</g>
			<g>
				<g>
					<path fill="#282D33" d="M75.316,67.518c-0.007,0-0.014,0-0.02,0c-0.343,0-0.686-0.087-0.993-0.264l-16.269-9.299
						c-0.617-0.352-1-1.005-1.008-1.716L56.84,37.342c-0.006-0.717,0.37-1.382,0.988-1.745c0.618-0.362,1.383-0.367,2.005-0.011
						L76.1,44.883c0.617,0.353,1,1.006,1.008,1.716l0.186,18.615c0.016,0.099,0.023,0.2,0.023,0.304
						C77.316,66.622,76.421,67.518,75.316,67.518z M61.016,55.052l12.246,6.999l-0.143-14.264l-12.244-6.998L61.016,55.052z"/>
				</g>
			</g>
		</g>
	</g>
</g>
</svg>
