<?xml version="1.0" encoding="utf-8"?>
<!-- Generator: Adobe Illustrator 16.0.0, SVG Export Plug-In . SVG Version: 6.00 Build 0)  -->
<!DOCTYPE svg PUBLIC "-//W3C//DTD SVG 1.1//EN" "http://www.w3.org/Graphics/SVG/1.1/DTD/svg11.dtd">
<svg version="1.1" id="Layer_1" xmlns="http://www.w3.org/2000/svg" xmlns:xlink="http://www.w3.org/1999/xlink" x="0px" y="0px"
	 width="150px" height="150px" viewBox="0 0 150 150" enable-background="new 0 0 150 150" xml:space="preserve">
<g>
	<g>
		<polygon fill="#30C0D8" points="74.202,27.063 110.254,47.667 74.058,68.615 37.918,48.011 		"/>
		<path fill="#282D33" d="M74.058,70.615c-0.342,0-0.684-0.088-0.991-0.263l-36.14-20.604c-0.622-0.354-1.007-1.016-1.009-1.732
			c-0.002-0.716,0.379-1.379,1-1.736L73.202,25.33c0.616-0.355,1.375-0.357,1.992-0.004l36.052,20.604
			c0.622,0.355,1.006,1.015,1.008,1.731c0.002,0.715-0.379,1.377-0.998,1.736L75.06,70.346
			C74.75,70.525,74.404,70.615,74.058,70.615z M41.938,48l32.113,18.309l32.191-18.631L74.207,29.369L41.938,48z"/>
	</g>
	<g>
		<path fill="#282D33" d="M88.668,104.559l-2-3.465l21.994-12.701l-0.373-37.277l-32.23,18.653v7.323h-4v-8.477
			c0-0.714,0.38-1.373,0.998-1.73l36.196-20.949c0.617-0.355,1.376-0.358,1.992-0.006c0.619,0.352,1.003,1.006,1.01,1.717
			l0.42,41.873c0.008,0.723-0.375,1.392-1,1.752L88.668,104.559z"/>
	</g>
	<g>
		<path fill="#282D33" d="M60.205,104.693L37.341,91.625c-0.617-0.353-1-1.006-1.007-1.717L35.918,48.03
			c-0.007-0.716,0.369-1.381,0.987-1.744c0.617-0.362,1.381-0.367,2.004-0.013l36.14,20.604c0.624,0.355,1.01,1.019,1.01,1.737
			v8.477h-4v-7.314L39.953,51.473l0.37,37.25l21.868,12.498L60.205,104.693z"/>
	</g>
	<g>
		<g>
			<g>
				<path fill="#282D33" d="M85.906,95.508h-4v-4.586c0-3.484-2.834-6.319-6.316-6.319h-2.587c-3.482,0-6.315,2.835-6.315,6.319
					v4.586h-4v-4.586c0-5.69,4.627-10.319,10.315-10.319h2.587c5.688,0,10.316,4.629,10.316,10.319V95.508z"/>
			</g>
		</g>
		<g>
			<rect x="59.546" y="94.461" fill="#B7BEC0" width="29.5" height="27.655"/>
			<path fill="#282D33" d="M87.047,96.461v23.655h-25.5V96.461H87.047L87.047,96.461z M91.047,92.461h-4h-25.5h-4v4v23.655v4h4h25.5
				h4v-4V96.461V92.461L91.047,92.461z"/>
		</g>
		<g>
			<path fill="#FFFFFF" d="M74.121,105.277c-0.041-0.024-0.176-0.119-0.176-0.301c0-0.194,0.158-0.353,0.353-0.353
				s0.352,0.158,0.352,0.353c0,0.182-0.133,0.275-0.174,0.3l-0.179,0.107L74.121,105.277z"/>
			<path fill="#282D33" d="M74.297,102.624c-1.298,0-2.353,1.052-2.353,2.353c0,0.856,0.461,1.604,1.146,2.016l-0.532,5.794h1.739
				h1.738l-0.533-5.794c0.688-0.412,1.146-1.159,1.146-2.016C76.648,103.676,75.596,102.624,74.297,102.624L74.297,102.624z"/>
		</g>
	</g>
	<g>
		<g>

				<rect x="81.579" y="86.448" transform="matrix(0.4999 0.8661 -0.8661 0.4999 117.5327 -28.6544)" fill="#282D33" width="4.001" height="2"/>
		</g>
		<g>
			<path fill="#282D33" d="M89.115,86.563l-2-3.463l3.668-2.119l2,3.464L89.115,86.563z M96.453,82.326l-2-3.464l3.669-2.118
				l2,3.464L96.453,82.326z M103.791,78.09l-2-3.464l3.669-2.118l2,3.464L103.791,78.09z M111.129,73.854l-2-3.465l3.67-2.117
				l2,3.464L111.129,73.854z M118.467,69.617l-2-3.464l3.67-2.119l2,3.464L118.467,69.617z"/>
		</g>
		<g>
			<path fill="#282D33" d="M125.807,65.38l-0.729-1.263l-1.268-0.725l0.423-0.739l-0.427-0.737l1.265-0.73l0.723-1.266l1.736,0.991
				c0.622,0.355,1.006,1.016,1.008,1.731c0.002,0.717-0.379,1.379-0.999,1.737L125.807,65.38z"/>
		</g>
		<g>

				<rect x="118.626" y="57.106" transform="matrix(0.8682 0.4962 -0.4962 0.8682 45.192 -51.9252)" fill="#282D33" width="3.426" height="4"/>
		</g>
		<g>

				<rect x="114.009" y="54.06" transform="matrix(0.868 0.4965 -0.4965 0.868 43.0117 -49.7048)" fill="#282D33" width="2" height="4"/>
		</g>
	</g>
	<g>
		<g>

				<rect x="64.015" y="85.449" transform="matrix(0.8659 0.5001 -0.5001 0.8659 52.4508 -20.7934)" fill="#282D33" width="1.999" height="3.999"/>
		</g>
		<g>
			<path fill="#282D33" d="M59.48,86.563l-3.669-2.118l2-3.465l3.669,2.118L59.48,86.563z M52.142,82.326l-3.669-2.117l2-3.465
				l3.669,2.118L52.142,82.326z M44.804,78.09l-3.669-2.118l2-3.464l3.669,2.118L44.804,78.09z M37.466,73.854l-3.669-2.118l2-3.464
				l3.669,2.119L37.466,73.854z M30.128,69.617l-3.669-2.118l2-3.464l3.669,2.118L30.128,69.617z"/>
		</g>
		<g>
			<path fill="#282D33" d="M22.79,65.38l-1.732-1c-0.62-0.358-1.001-1.021-1-1.736s0.386-1.377,1.008-1.732l1.736-0.991l0.723,1.266
				l1.265,0.73l-0.426,0.738l0.422,0.738l-1.266,0.724L22.79,65.38z"/>
		</g>
		<g>

				<rect x="26.256" y="57.393" transform="matrix(0.4961 0.8682 -0.8682 0.4961 65.5551 5.2487)" fill="#282D33" width="4" height="3.426"/>
		</g>
		<g>

				<rect x="31.585" y="55.06" transform="matrix(0.4963 0.8681 -0.8681 0.4963 65.5841 -0.9206)" fill="#282D33" width="4" height="2"/>
		</g>
	</g>
</g>
</svg>
