<?xml version="1.0" encoding="utf-8"?>
<!-- Generator: Adobe Illustrator 16.0.0, SVG Export Plug-In . SVG Version: 6.00 Build 0)  -->
<!DOCTYPE svg PUBLIC "-//W3C//DTD SVG 1.1//EN" "http://www.w3.org/Graphics/SVG/1.1/DTD/svg11.dtd">
<svg version="1.1" id="Layer_1" xmlns="http://www.w3.org/2000/svg" xmlns:xlink="http://www.w3.org/1999/xlink" x="0px" y="0px"
	 width="150px" height="150px" viewBox="0 0 150 150" enable-background="new 0 0 150 150" xml:space="preserve">
<g>
	<g>
		<polygon fill="#30C0D8" points="74.202,27.063 110.254,47.667 74.058,68.615 37.918,48.011 		"/>
		<path fill="#282D33" d="M74.058,70.615c-0.342,0-0.684-0.088-0.991-0.263l-36.14-20.604c-0.622-0.354-1.007-1.016-1.009-1.732
			c-0.002-0.716,0.379-1.379,1-1.736L73.202,25.33c0.616-0.355,1.375-0.357,1.992-0.004l36.052,20.604
			c0.622,0.355,1.006,1.015,1.008,1.731c0.002,0.715-0.379,1.377-0.998,1.736L75.06,70.346
			C74.75,70.525,74.404,70.615,74.058,70.615z M41.938,48l32.113,18.309l32.191-18.631L74.207,29.369L41.938,48z"/>
	</g>
	<g>
		<path fill="#282D33" d="M88.668,104.559l-2-3.465l21.994-12.701l-0.373-37.277l-32.23,18.653v7.323h-4v-8.477
			c0-0.714,0.38-1.373,0.998-1.73l36.196-20.949c0.617-0.355,1.376-0.358,1.992-0.006c0.619,0.352,1.003,1.006,1.01,1.717
			l0.42,41.873c0.008,0.723-0.375,1.392-1,1.752L88.668,104.559z"/>
	</g>
	<g>
		<path fill="#282D33" d="M60.205,104.693L37.341,91.625c-0.617-0.353-1-1.006-1.007-1.717L35.918,48.03
			c-0.007-0.716,0.369-1.381,0.987-1.744c0.617-0.362,1.381-0.367,2.004-0.013l36.14,20.604c0.624,0.355,1.01,1.019,1.01,1.737
			v10.494l-4,0.047v-9.379L39.953,51.473l0.37,37.25l21.868,12.498L60.205,104.693z"/>
	</g>
	<g>
		<g>
			<path fill="#282D33" d="M89.115,86.563l-2-3.463l3.668-2.119l2,3.464L89.115,86.563z M96.453,82.326l-2-3.464l3.669-2.118
				l2,3.464L96.453,82.326z M103.791,78.09l-2-3.464l3.669-2.118l2,3.464L103.791,78.09z M111.129,73.854l-2-3.465l3.67-2.117
				l2,3.464L111.129,73.854z M118.467,69.617l-2-3.464l3.67-2.119l2,3.464L118.467,69.617z"/>
		</g>
		<g>
			<path fill="#282D33" d="M125.807,65.38l-0.729-1.263l-1.268-0.725l0.423-0.739l-0.427-0.737l1.265-0.73l0.723-1.266l1.736,0.991
				c0.622,0.355,1.006,1.016,1.008,1.731c0.002,0.717-0.379,1.379-0.999,1.737L125.807,65.38z"/>
		</g>
		<g>

				<rect x="118.626" y="57.106" transform="matrix(0.8682 0.4962 -0.4962 0.8682 45.192 -51.9252)" fill="#282D33" width="3.426" height="4"/>
		</g>
		<g>

				<rect x="114.009" y="54.06" transform="matrix(0.868 0.4965 -0.4965 0.868 43.0117 -49.7048)" fill="#282D33" width="2" height="4"/>
		</g>
	</g>
	<g>
		<g>
			<path fill="#282D33" d="M59.48,86.563l-3.669-2.118l2-3.465l3.669,2.118L59.48,86.563z M52.142,82.326l-3.669-2.117l2-3.465
				l3.669,2.118L52.142,82.326z M44.804,78.09l-3.669-2.118l2-3.464l3.669,2.118L44.804,78.09z M37.466,73.854l-3.669-2.118l2-3.464
				l3.669,2.119L37.466,73.854z M30.128,69.617l-3.669-2.118l2-3.464l3.669,2.118L30.128,69.617z"/>
		</g>
		<g>
			<path fill="#282D33" d="M22.79,65.38l-1.732-1c-0.62-0.358-1.001-1.021-1-1.736s0.386-1.377,1.008-1.732l1.736-0.991l0.723,1.266
				l1.265,0.73l-0.426,0.738l0.422,0.738l-1.266,0.724L22.79,65.38z"/>
		</g>
		<g>

				<rect x="26.256" y="57.393" transform="matrix(0.4961 0.8682 -0.8682 0.4961 65.5551 5.2487)" fill="#282D33" width="4" height="3.426"/>
		</g>
		<g>

				<rect x="31.585" y="55.06" transform="matrix(0.4963 0.8681 -0.8681 0.4963 65.5841 -0.9206)" fill="#282D33" width="4" height="2"/>
		</g>
	</g>
</g>
<g>
	<g>
		<path fill="#FFFFFF" d="M92.619,104.634l-0.051-5.116l-4.553-0.33c-0.337-1.675-0.971-3.236-1.846-4.631l3-3.624l-3.655-3.581
			l-3.454,2.985c-1.376-0.914-2.92-1.586-4.578-1.967l-0.439-4.685l-5.121,0.054l-0.329,4.551c-1.672,0.339-3.234,0.973-4.63,1.847
			l-3.624-3.002l-3.581,3.656l2.986,3.454c-0.913,1.376-1.586,2.92-1.967,4.576l-4.684,0.44l0.053,5.12l4.552,0.332
			c0.338,1.67,0.972,3.234,1.847,4.627l-3.002,3.625l3.658,3.581l3.454-2.985c1.373,0.913,2.919,1.587,4.577,1.966l0.439,4.687
			l5.119-0.055l0.33-4.552c1.67-0.337,3.234-0.969,4.631-1.845l3.623,3.002l3.583-3.657l-2.987-3.455
			c0.914-1.374,1.588-2.918,1.967-4.576L92.619,104.634z"/>
		<path fill="#282D33" d="M77.958,121.401l-7.428,0.08l-0.466-4.962c-1.148-0.338-2.249-0.809-3.287-1.406l-3.629,3.137
			l-5.306-5.195l3.177-3.837c-0.573-1.05-1.018-2.162-1.329-3.321l-4.786-0.346l-0.076-7.426l4.958-0.469
			c0.339-1.148,0.81-2.249,1.408-3.288l-3.137-3.628l5.195-5.307l3.835,3.177c1.053-0.573,2.165-1.017,3.323-1.328l0.345-4.786
			l7.428-0.079l0.466,4.962c1.151,0.338,2.251,0.81,3.288,1.406l3.629-3.137l5.308,5.195l-3.179,3.836
			c0.574,1.051,1.019,2.163,1.328,3.324l4.787,0.344l0.076,7.427l-4.958,0.468c-0.339,1.149-0.811,2.251-1.407,3.287l3.137,3.63
			l-5.193,5.306l-3.839-3.176c-1.052,0.573-2.163,1.017-3.323,1.327L77.958,121.401z M72.81,118.949l2.814-0.031l0.313-4.353
			l0.938-0.188c1.496-0.302,2.914-0.864,4.209-1.677l0.768-0.481l3.432,2.844l1.971-2.009l-2.856-3.301l0.525-0.795
			c0.846-1.271,1.449-2.671,1.792-4.163l0.2-0.884l4.44-0.415l-0.028-2.813l-4.354-0.315l-0.188-0.935
			c-0.303-1.502-0.865-2.919-1.676-4.211l-0.482-0.769l2.844-3.431l-2.01-1.968l-3.3,2.853l-0.794-0.527
			c-1.271-0.843-2.671-1.446-4.165-1.789l-0.884-0.201l-0.415-4.44l-2.813,0.03l-0.314,4.353l-0.933,0.188
			c-1.5,0.304-2.918,0.867-4.213,1.676l-0.768,0.483l-3.432-2.845l-1.968,2.01l2.854,3.299l-0.526,0.795
			c-0.847,1.273-1.449,2.675-1.791,4.166l-0.202,0.883l-4.439,0.415l0.03,2.813l4.352,0.317l0.189,0.934
			c0.303,1.502,0.866,2.918,1.678,4.209l0.482,0.767l-2.844,3.435l2.009,1.97l3.3-2.854l0.792,0.526
			c1.274,0.843,2.676,1.447,4.166,1.788l0.883,0.201L72.81,118.949z"/>
	</g>
	<circle fill="#B7BEC0" cx="74.356" cy="101.948" r="9.117"/>
	<g>
		<circle fill="#FFFFFF" cx="74.356" cy="101.948" r="5.676"/>
		<path fill="#282D33" d="M74.43,108.879c-3.821,0.042-6.964-3.036-7.003-6.857c-0.041-3.821,3.035-6.963,6.857-7.002
			c3.822-0.042,6.962,3.035,7.002,6.855C81.328,105.697,78.251,108.839,74.43,108.879z M74.31,97.525
			c-2.439,0.025-4.402,2.032-4.376,4.471c0.026,2.439,2.032,4.401,4.47,4.377c2.437-0.026,4.401-2.033,4.375-4.473
			C78.753,99.463,76.749,97.5,74.31,97.525z"/>
	</g>
</g>
</svg>
