<?xml version="1.0" encoding="utf-8"?>
<!-- Generator: Adobe Illustrator 16.0.0, SVG Export Plug-In . SVG Version: 6.00 Build 0)  -->
<!DOCTYPE svg PUBLIC "-//W3C//DTD SVG 1.1//EN" "http://www.w3.org/Graphics/SVG/1.1/DTD/svg11.dtd">
<svg version="1.1" id="Layer_1" xmlns="http://www.w3.org/2000/svg" xmlns:xlink="http://www.w3.org/1999/xlink" x="0px" y="0px"
	 width="150px" height="150px" viewBox="0 0 150 150" enable-background="new 0 0 150 150" xml:space="preserve">
<g>
	<g>
		<g>
			<path fill="#FFFFFF" d="M122.154,92.227V37.041c0-1.425-1.162-2.584-2.586-2.584H30.395c-1.426,0-2.584,1.159-2.584,2.584v55.186
				H122.154z"/>
			<path fill="#282D33" d="M124.154,94.227H25.811V37.041c0-2.526,2.057-4.584,4.584-4.584h89.173c2.529,0,4.586,2.058,4.586,4.584
				V94.227L124.154,94.227z M29.811,90.227h90.343V37.041c0-0.322-0.262-0.584-0.586-0.584H30.395c-0.322,0-0.584,0.262-0.584,0.584
				V90.227z"/>
		</g>
		<rect x="35.189" y="41.953" fill="#B7BEC0" width="79.489" height="42.719"/>
		<g>
			<path fill="#FFFFFF" d="M27.756,92.172v7.957c0,1.525,1.563,3.225,3.09,3.225h88.958c1.527,0,2.438-1.565,2.438-3.094v-8.088
				H27.756z"/>
			<path fill="#282D33" d="M119.805,105.354H30.846c-2.616,0-5.09-2.539-5.09-5.225v-9.957h98.486v10.088
				C124.242,103.117,122.294,105.354,119.805,105.354z M29.756,94.172v5.957c0,0.48,0.724,1.225,1.09,1.225h88.958
				c0.131,0,0.438-0.461,0.438-1.094v-6.088H29.756z"/>
		</g>
		<g>
			<path fill="#FFFFFF" d="M64.504,103.418c-0.162,1.977,0.189,6.379-0.236,8.527c-0.391,1.969-0.662,2.035-1.707,2.615
				c-0.59,0.321-1.584,0.772-2.418,1.135l0,0L64.504,103.418z"/>
			<path fill="#282D33" d="M60.936,117.531l-1.586-3.672c0.974-0.42,1.815-0.814,2.25-1.054l0.133-0.073
				c0.125-0.068,0.233-0.121,0.325-0.181c0.044-0.112,0.127-0.383,0.248-0.996c0.219-1.102,0.189-3.235,0.167-4.952
				c-0.018-1.275-0.033-2.48,0.038-3.351l3.986,0.326c-0.056,0.68-0.041,1.793-0.025,2.969c0.028,2.103,0.058,4.273-0.242,5.785
				c-0.475,2.389-1.057,3.07-2.565,3.902l-0.133,0.071C62.774,116.725,61.581,117.252,60.936,117.531z"/>
		</g>
		<g>
			<path fill="#FFFFFF" d="M89.758,115.709c-0.838-0.365-1.85-0.822-2.445-1.148c-1.043-0.58-1.248-0.646-1.637-2.614
				c-0.426-2.148-0.076-6.441-0.238-8.421L89.758,115.709z"/>
			<path fill="#282D33" d="M88.96,117.543c-0.81-0.354-1.919-0.852-2.606-1.229l-0.092-0.052c-1.637-0.907-2.088-1.604-2.547-3.93
				c-0.301-1.512-0.271-3.647-0.244-5.713c0.016-1.158,0.029-2.252-0.025-2.933l3.986-0.327c0.07,0.87,0.055,2.057,0.039,3.313
				c-0.023,1.687-0.052,3.781,0.168,4.883c0.121,0.621,0.2,0.904,0.246,1.033c0.09,0.058,0.194,0.109,0.316,0.179
				c0.506,0.274,1.316,0.655,2.355,1.106L88.96,117.543z"/>
		</g>
		<g>
			<path fill="#FFFFFF" d="M57.553,115.535h34.906H57.553z"/>
			<rect x="57.553" y="113.535" fill="#282D33" width="34.906" height="4"/>
		</g>
	</g>
	<g>
		<g>
			<g>
				<path fill="#FFFFFF" d="M73.939,55.977v-5.768V55.977z"/>
				<rect x="71.939" y="50.209" fill="#282D33" width="4" height="5.768"/>
			</g>
			<g>
				<path fill="#FFFFFF" d="M68.51,59.502l-4.994-2.882L68.51,59.502z"/>

					<rect x="63.133" y="56.062" transform="matrix(-0.8661 -0.4998 0.4998 -0.8661 94.1717 141.3488)" fill="#282D33" width="5.766" height="4.001"/>
			</g>
			<g>
				<path fill="#FFFFFF" d="M68.848,65.97l-4.994,2.883L68.848,65.97z"/>

					<rect x="64.35" y="64.526" transform="matrix(-0.5 -0.866 0.866 -0.5 41.1498 158.5744)" fill="#282D33" width="4" height="5.766"/>
			</g>
			<g>
				<path fill="#FFFFFF" d="M74.619,68.909v5.77V68.909z"/>
				<rect x="72.619" y="68.909" fill="#282D33" width="4" height="5.77"/>
			</g>
			<g>
				<path fill="#FFFFFF" d="M80.049,65.382l4.996,2.884L80.049,65.382z"/>

					<rect x="79.664" y="64.825" transform="matrix(-0.8661 -0.4999 0.4999 -0.8661 120.638 165.9682)" fill="#282D33" width="5.77" height="4.001"/>
			</g>
			<g>
				<path fill="#FFFFFF" d="M79.709,58.917l4.996-2.884L79.709,58.917z"/>

					<rect x="80.205" y="54.588" transform="matrix(-0.5 -0.866 0.866 -0.5 73.5382 157.4002)" fill="#282D33" width="4" height="5.769"/>
			</g>
		</g>
		<g>
			<g>
				<polygon fill="#FFFFFF" points="79.926,65.125 85.877,65.125 91.826,65.125 88.854,70.278 85.877,75.433 82.9,70.278 				"/>
				<path fill="#282D33" d="M85.877,79.432l-9.415-16.306h9.415h9.414L85.877,79.432z M83.391,67.125l2.486,4.309l2.486-4.309
					h-2.486H83.391z"/>
			</g>
			<g>

					<rect x="88.291" y="69.978" transform="matrix(-0.866 -0.5001 0.5001 -0.866 135.2807 180.2138)" fill="#282D33" width="6.999" height="4.001"/>
			</g>
		</g>
	</g>
</g>
</svg>
