<?xml version="1.0" encoding="utf-8"?>
<!-- Generator: Adobe Illustrator 16.0.0, SVG Export Plug-In . SVG Version: 6.00 Build 0)  -->
<!DOCTYPE svg PUBLIC "-//W3C//DTD SVG 1.1//EN" "http://www.w3.org/Graphics/SVG/1.1/DTD/svg11.dtd">
<svg version="1.1" id="Layer_1" xmlns="http://www.w3.org/2000/svg" xmlns:xlink="http://www.w3.org/1999/xlink" x="0px" y="0px"
	 width="150px" height="150px" viewBox="0 0 150 150" enable-background="new 0 0 150 150" xml:space="preserve">
<g>
	<circle fill="#30C0D8" cx="59.643" cy="61.333" r="13.521"/>
	<g>
		<g>
			<g>
				<rect x="85.789" y="86.848" fill="#282D33" width="4" height="4"/>
			</g>
			<g>
				<path fill="#282D33" d="M81.855,90.848h-3.934v-4h3.934V90.848z M73.99,90.848h-3.933v-4h3.933V90.848z M66.124,90.848H62.19v-4
					h3.934V90.848z M58.258,90.848h-3.933v-4h3.933V90.848z M50.392,90.848h-3.933v-4h3.933V90.848z M42.525,90.848h-3.932v-4h3.932
					V90.848z"/>
			</g>
			<g>
				<rect x="30.661" y="86.848" fill="#282D33" width="4" height="4"/>
			</g>
			<g>
				<path fill="#282D33" d="M34.661,82.914h-4V78.98h4V82.914z M34.661,75.048h-4v-3.932h4V75.048z M34.661,67.182h-4v-3.934h4
					V67.182z M34.661,59.315h-4v-3.933h4V59.315z M34.661,51.449h-4v-3.933h4V51.449z M34.661,43.583h-4V39.65h4V43.583z"/>
			</g>
			<g>
				<rect x="30.661" y="31.718" fill="#282D33" width="4" height="4"/>
			</g>
			<g>
				<path fill="#282D33" d="M81.855,35.718h-3.933v-4h3.933V35.718z M73.99,35.718h-3.933v-4h3.933V35.718z M66.124,35.718h-3.933
					v-4h3.933V35.718z M58.258,35.718h-3.933v-4h3.933V35.718z M50.392,35.718h-3.933v-4h3.933V35.718z M42.526,35.718h-3.933v-4
					h3.933V35.718z"/>
			</g>
			<g>
				<rect x="85.789" y="31.718" fill="#282D33" width="4" height="4"/>
			</g>
			<g>
				<path fill="#282D33" d="M89.789,82.914h-4V78.98h4V82.914z M89.789,75.048h-4v-3.932h4V75.048z M89.789,67.182h-4v-3.934h4
					V67.182z M89.789,59.315h-4v-3.933h4V59.315z M89.789,51.449h-4v-3.933h4V51.449z M89.789,43.583h-4V39.65h4V43.583z"/>
			</g>
		</g>
		<g>
			<g>
				<rect x="25.084" y="25.718" fill="#FFFFFF" width="17.7" height="17.695"/>
				<path fill="#282D33" d="M44.785,45.413h-21.7V23.718h21.7V45.413z M27.084,41.413h13.7V27.718h-13.7V41.413z"/>
			</g>
			<g>
				<rect x="77.67" y="25.718" fill="#FFFFFF" width="17.697" height="17.695"/>
				<path fill="#282D33" d="M97.367,45.413H75.67V23.718h21.697V45.413z M79.67,41.413h13.697V27.718H79.67V41.413z"/>
			</g>
			<g>
				<rect x="25.084" y="79.154" fill="#FFFFFF" width="17.7" height="17.693"/>
				<path fill="#282D33" d="M44.785,98.848h-21.7V77.154h21.7V98.848z M27.084,94.848h13.7V81.154h-13.7V94.848z"/>
			</g>
		</g>
	</g>
	<g>
		<polygon fill="#FFFFFF" points="120.625,85.17 93.342,75.914 66.057,66.663 75.312,93.945 84.568,121.229 91.15,104.023
			109.588,122.461 121.857,110.193 103.42,91.751 		"/>
		<path fill="#282D33" d="M84.456,127.122L62.861,63.467l63.657,21.59l-19.504,7.461l17.672,17.676l-15.099,15.097l-17.672-17.671
			L84.456,127.122z M90.385,100.428l19.203,19.206l9.441-9.44L99.825,90.984l14.905-5.701L69.253,69.859l15.429,45.479
			L90.385,100.428z"/>
	</g>
</g>
</svg>
