<?xml version="1.0" encoding="utf-8"?>
<!-- Generator: Adobe Illustrator 16.0.0, SVG Export Plug-In . SVG Version: 6.00 Build 0)  -->
<!DOCTYPE svg PUBLIC "-//W3C//DTD SVG 1.1//EN" "http://www.w3.org/Graphics/SVG/1.1/DTD/svg11.dtd">
<svg version="1.1" id="Layer_1" xmlns="http://www.w3.org/2000/svg" xmlns:xlink="http://www.w3.org/1999/xlink" x="0px" y="0px"
	 width="150px" height="150px" viewBox="0 0 150 150" enable-background="new 0 0 150 150" xml:space="preserve">
<g>
	<g>
		<path fill="#282D33" d="M45.149,94.285c-10.109,0-18.334-8.225-18.334-18.332c0-10.109,8.225-18.334,18.334-18.334
			s18.334,8.225,18.334,18.334C63.483,86.061,55.259,94.285,45.149,94.285z M45.149,61.619c-7.903,0-14.334,6.43-14.334,14.334
			c0,7.902,6.431,14.332,14.334,14.332s14.334-6.43,14.334-14.332C59.483,68.049,53.053,61.619,45.149,61.619z"/>
	</g>
	<g>
		<path fill="#282D33" d="M45.149,86.62c-5.882,0-10.668-4.785-10.668-10.667c0-5.883,4.786-10.668,10.668-10.668
			s10.666,4.785,10.666,10.668C55.815,81.835,51.031,86.62,45.149,86.62z M45.149,69.285c-3.677,0-6.668,2.991-6.668,6.668
			c0,3.676,2.991,6.667,6.668,6.667c3.676,0,6.666-2.991,6.666-6.667C51.815,72.276,48.825,69.285,45.149,69.285z"/>
	</g>
	<g>
		<g>
			<path fill="#282D33" d="M104.149,63.953c-10.109,0-18.334-8.226-18.334-18.334c0-10.109,8.225-18.334,18.334-18.334
				c10.108,0,18.332,8.225,18.332,18.334C122.481,55.728,114.258,63.953,104.149,63.953z M104.149,31.285
				c-7.903,0-14.334,6.431-14.334,14.334s6.431,14.334,14.334,14.334s14.332-6.431,14.332-14.334S112.053,31.285,104.149,31.285z"/>
		</g>
		<circle fill="#30C0D8" cx="104.148" cy="45.619" r="8.667"/>
		<g>
			<path fill="#282D33" d="M104.149,124.62c-10.109,0-18.334-8.226-18.334-18.335c0-10.108,8.225-18.332,18.334-18.332
				c10.108,0,18.332,8.224,18.332,18.332C122.481,116.395,114.258,124.62,104.149,124.62z M104.149,91.953
				c-7.903,0-14.334,6.43-14.334,14.332c0,7.904,6.431,14.335,14.334,14.335s14.332-6.431,14.332-14.335
				C118.481,98.383,112.053,91.953,104.149,91.953z"/>
		</g>
		<circle fill="#B7BEC0" cx="104.148" cy="106.285" r="8.667"/>
	</g>
	<g>

			<rect x="55.904" y="91.181" transform="matrix(0.8912 0.4537 -0.4537 0.8912 50.2244 -22.9842)" fill="#282D33" width="34.219" height="4"/>
	</g>
	<g>

			<rect x="70.738" y="41.894" transform="matrix(0.4537 0.8911 -0.8911 0.4537 92.2127 -32.649)" fill="#282D33" width="3.999" height="33.994"/>
	</g>
</g>
</svg>
