<?xml version="1.0" encoding="utf-8"?>
<!-- Generator: Adobe Illustrator 16.0.0, SVG Export Plug-In . SVG Version: 6.00 Build 0)  -->
<!DOCTYPE svg PUBLIC "-//W3C//DTD SVG 1.1//EN" "http://www.w3.org/Graphics/SVG/1.1/DTD/svg11.dtd">
<svg version="1.1" id="Layer_1" xmlns="http://www.w3.org/2000/svg" xmlns:xlink="http://www.w3.org/1999/xlink" x="0px" y="0px"
	 width="24px" height="24px" viewBox="0 0 24 24" enable-background="new 0 0 24 24" xml:space="preserve">
<path d="M1.125,1.125v21.75h21.75V1.125H1.125z M20.875,16.501L16.5,20.875h-3.352l7.727-7.724V16.501z M3.125,7.082l3.957-3.957
	h3.351l-7.308,7.307V7.082z M3.125,11.845l8.722-8.72h3.35L3.125,15.194V11.845z M3.125,16.608L16.61,3.125h3.349L3.125,19.959
	V16.608z M20.875,3.624v3.352l-13.902,13.9h-3.35L20.875,3.624z M20.875,8.389v3.349l-9.141,9.137H8.387L20.875,8.389z M5.668,3.125
	L3.125,5.668V3.125H5.668z M17.914,20.875l2.961-2.96v2.96H17.914z"/>
</svg>
