<?xml version="1.0" encoding="utf-8"?>
<!-- Generator: Adobe Illustrator 16.0.0, SVG Export Plug-In . SVG Version: 6.00 Build 0)  -->
<!DOCTYPE svg PUBLIC "-//W3C//DTD SVG 1.1//EN" "http://www.w3.org/Graphics/SVG/1.1/DTD/svg11.dtd">
<svg version="1.1" id="Layer_1" xmlns="http://www.w3.org/2000/svg" xmlns:xlink="http://www.w3.org/1999/xlink" x="0px" y="0px"
	 width="126px" height="126px" viewBox="0 0 126 126" enable-background="new 0 0 126 126" xml:space="preserve">
<g>
	<path d="M68.811,37.766H53.227H35.643v7.5v1v6.5v1v6.5v1v7.5h16.583h1h15.584h1h16.582v-8.5v-6.5v-7.5v-1v-7.5H68.811z
		 M68.811,52.766H53.227v-6.5h15.583V52.766z M36.643,38.766h15.583v6.5H36.643V38.766z M36.643,46.266h15.583v6.5H36.643V46.266z
		 M36.643,53.766h15.583v6.5H36.643V53.766z M36.643,67.766v-6.5h15.583v6.5H36.643z M53.227,67.766v-6.5h15.583v6.5H53.227z
		 M85.393,67.766H69.811v-6.5h15.582V67.766z M85.393,52.766H69.811v-6.5h15.582V52.766z M69.811,45.266v-6.5h15.582v6.5H69.811z"/>
	<path d="M99.874,36.585c-0.006-0.468-0.154-0.93-0.476-1.295L79.73,12.825c-0.004-0.006-0.01-0.008-0.016-0.014
		c-0.117-0.131-0.252-0.239-0.396-0.334c-0.043-0.028-0.086-0.053-0.131-0.078c-0.127-0.068-0.258-0.124-0.395-0.165
		c-0.037-0.011-0.07-0.026-0.107-0.036c-0.149-0.035-0.303-0.057-0.459-0.057H29.893c-2.205,0-4,1.795-4,4v94c0,2.207,1.795,4,4,4
		h66c2.207,0,4-1.793,4-4V36.809C99.893,36.733,99.881,36.659,99.874,36.585z M29.893,80.059V16.142h46.333v20.466
		c0,1.104,0.896,2,2,2h17.666l0.002,41.451H29.893z"/>
</g>
<g>
	<path fill="#FFFFFF" d="M31.443,102.502c0.95,0.527,2.401,1.003,3.852,1.003c1.953,0,3.061-0.977,3.061-2.454
		c0-1.372-0.897-2.163-2.902-3.034c-2.638-1.107-4.38-2.743-4.38-5.092c0-2.875,2.269-5.065,5.963-5.065
		c1.688,0,3.007,0.396,3.772,0.792l-0.686,2.559c-0.607-0.316-1.688-0.765-3.14-0.765c-1.926,0-2.77,1.082-2.77,2.137
		c0,1.372,0.923,2.005,3.14,3.008c2.823,1.267,4.142,2.876,4.142,5.224c0,2.955-2.19,5.303-6.358,5.303
		c-1.715,0-3.482-0.475-4.327-1.002L31.443,102.502z"/>
	<path fill="#FFFFFF" d="M47.302,88.097V95.3h6.543v-7.203h3.113v17.782h-3.113v-7.836h-6.543v7.836h-3.113V88.097H47.302z"/>
	<path fill="#FFFFFF" d="M69.572,97.938H63.61v5.329h6.675v2.612h-9.788V88.097h9.419v2.612H63.61v4.67h5.962V97.938z"/>
	<path fill="#FFFFFF" d="M82.054,97.938h-5.962v5.329h6.675v2.612h-9.788V88.097h9.419v2.612h-6.306v4.67h5.962V97.938z"/>
	<path fill="#FFFFFF" d="M88.626,90.788h-4.512v-2.691h12.162v2.691h-4.537v15.091h-3.113V90.788z"/>
</g>
</svg>
