<?xml version="1.0" encoding="utf-8"?>
<!-- Generator: Adobe Illustrator 16.0.0, SVG Export Plug-In . SVG Version: 6.00 Build 0)  -->
<!DOCTYPE svg PUBLIC "-//W3C//DTD SVG 1.1//EN" "http://www.w3.org/Graphics/SVG/1.1/DTD/svg11.dtd">
<svg version="1.1" id="Layer_1" xmlns="http://www.w3.org/2000/svg" xmlns:xlink="http://www.w3.org/1999/xlink" x="0px" y="0px"
	 width="126px" height="126px" viewBox="0 0 126 126" enable-background="new 0 0 126 126" xml:space="preserve">
<g>
	<g>
		<path d="M83.4,88.328c-1.32,0-2.07,0.07-2.463,0.178v6.6h2.141c2.713,0,4.316-1.355,4.316-3.461
			C87.395,89.469,85.896,88.328,83.4,88.328z"/>
		<path d="M99.979,36.443c-0.004-0.468-0.15-0.93-0.475-1.295L79.838,12.684c-0.006-0.006-0.012-0.008-0.016-0.014
			c-0.117-0.131-0.254-0.239-0.398-0.334c-0.043-0.028-0.086-0.053-0.131-0.078c-0.125-0.068-0.258-0.124-0.395-0.165
			c-0.037-0.011-0.07-0.026-0.107-0.036C78.643,12.021,78.488,12,78.332,12H30c-2.207,0-4,1.795-4,4v94c0,2.206,1.793,4,4,4h66
			c2.205,0,4-1.794,4-4V36.667C100,36.592,99.988,36.518,99.979,36.443z M52.251,107.379c-1.677,0.57-4.852,1.355-8.027,1.355
			c-4.388,0-7.563-1.107-9.775-3.211c-2.176-2.105-3.389-5.244-3.389-8.777c0.036-7.99,5.851-12.557,13.735-12.557
			c3.104,0,5.494,0.605,6.671,1.141l-1.142,4.389c-1.32-0.605-2.925-1.035-5.565-1.035c-4.531,0-7.991,2.533-7.991,7.777
			c0,4.994,3.14,7.885,7.599,7.885c1.213,0,2.211-0.143,2.64-0.32v-5.066h-3.71v-4.246h8.954V107.379z M71.84,108.484H56.535V84.439
			H71.34v4.459h-9.382v4.994h8.847v4.424h-8.847v5.709h9.882V108.484z M88.145,108.484c-0.357-0.715-0.963-2.641-1.641-5.602
			c-0.678-3.033-1.713-3.816-3.961-3.854h-1.605v9.455h-5.387V84.76c1.748-0.285,4.316-0.5,7.242-0.5
			c3.568,0,6.064,0.535,7.777,1.891c1.463,1.143,2.248,2.855,2.248,5.066c0,3.033-2.176,5.137-4.246,5.887v0.107
			c1.678,0.678,2.605,2.248,3.211,4.459c0.75,2.746,1.463,5.887,1.926,6.814H88.145z M96,79.917H30V16h46.332v20.466
			c0,1.104,0.896,2,2,2H96V79.917z"/>
	</g>
</g>
<g>
	<g>
		<path fill="#231F20" d="M77.121,63.793c0,2.082-1.689,3.771-3.771,3.771H52.652c-2.082,0-3.771-1.689-3.771-3.771V43.097
			c0-2.083,1.689-3.772,3.771-3.772H73.35c2.082,0,3.771,1.689,3.771,3.772V63.793z"/>
		<g>

				<line fill="none" stroke="#231F20" stroke-width="2.9416" stroke-miterlimit="10" x1="45.113" y1="48.665" x2="80.887" y2="48.665"/>

				<line fill="none" stroke="#231F20" stroke-width="2.9416" stroke-miterlimit="10" x1="45.113" y1="58.225" x2="80.887" y2="58.225"/>
		</g>
		<g>

				<line fill="none" stroke="#231F20" stroke-width="2.9416" stroke-miterlimit="10" x1="67.781" y1="35.557" x2="67.781" y2="71.332"/>

				<line fill="none" stroke="#231F20" stroke-width="2.9416" stroke-miterlimit="10" x1="58.22" y1="35.557" x2="58.22" y2="71.332"/>
		</g>
	</g>
	<rect x="52.363" y="42.745" fill="#FFFFFF" width="21.172" height="21.173"/>
	<g>
		<rect x="57.323" y="47.767" fill="#FFFFFF" width="11.353" height="11.354"/>
		<path fill="#231F20" d="M67.286,49.158v8.573h-8.572v-8.573H67.286 M70.066,46.377H55.933v14.134h14.133V46.377L70.066,46.377z"/>
	</g>
</g>
<g>
	<polygon fill="#FFFFFF" points="162.375,-27.25 162.625,-27.25 162.625,-27.25 	"/>
	<path fill="#231F20" d="M162.625-27.25h-0.25H162.625z"/>
</g>
</svg>
