<?xml version="1.0" encoding="utf-8"?>
<!-- Generator: Adobe Illustrator 16.0.0, SVG Export Plug-In . SVG Version: 6.00 Build 0)  -->
<!DOCTYPE svg PUBLIC "-//W3C//DTD SVG 1.1//EN" "http://www.w3.org/Graphics/SVG/1.1/DTD/svg11.dtd">
<svg version="1.1" id="Layer_1" xmlns="http://www.w3.org/2000/svg" xmlns:xlink="http://www.w3.org/1999/xlink" x="0px" y="0px"
	 width="126px" height="126px" viewBox="0 0 126 126" enable-background="new 0 0 126 126" xml:space="preserve">
<g>
	<path d="M47.455,88.771h-0.072c-0.359,1.438-0.719,3.273-1.115,4.68l-1.439,5.146h5.363l-1.512-5.146
		C48.248,92.012,47.816,90.211,47.455,88.771z"/>
	<path d="M99.979,36.443c-0.004-0.468-0.152-0.93-0.475-1.295L79.838,12.684c-0.006-0.006-0.012-0.008-0.016-0.014
		c-0.117-0.131-0.254-0.239-0.398-0.334c-0.043-0.028-0.086-0.053-0.131-0.078c-0.125-0.068-0.258-0.124-0.395-0.165
		c-0.037-0.011-0.07-0.026-0.107-0.036C78.643,12.021,78.488,12,78.332,12H30c-2.207,0-4,1.795-4,4v94c0,2.206,1.793,4,4,4h66
		c2.205,0,4-1.794,4-4V36.667C100,36.592,99.988,36.518,99.979,36.443z M30,79.917V16h46.332v20.466c0,1.104,0.896,2,2,2H96v41.451
		H30z"/>
</g>
<g>
	<path fill="#FFFFFF" d="M31.145,84.884c1.451-0.254,4.354-0.508,7.148-0.508c3.375,0,5.443,0.326,7.257,1.379
		c1.705,0.907,2.903,2.576,2.903,4.826c0,2.141-1.27,4.136-4.028,5.188v0.072c2.794,0.726,4.862,2.867,4.862,5.987
		c0,2.25-1.016,3.991-2.54,5.226c-1.778,1.415-4.753,2.213-9.616,2.213c-2.721,0-4.753-0.182-5.987-0.362V84.884z M36.624,94.245
		h1.814c2.939,0,4.463-1.197,4.463-3.012c0-1.851-1.415-2.83-3.919-2.83c-1.233,0-1.923,0.073-2.358,0.146V94.245z M36.624,105.095
		c0.544,0.072,1.197,0.072,2.141,0.072c2.504,0,4.717-0.979,4.717-3.556c0-2.431-2.213-3.411-4.971-3.411h-1.887V105.095z"/>
	<path fill="#FFFFFF" d="M53.059,84.884c1.778-0.29,4.39-0.508,7.366-0.508c3.629,0,6.169,0.544,7.91,1.923
		c1.487,1.161,2.286,2.903,2.286,5.152c0,3.085-2.214,5.226-4.318,5.987v0.109c1.706,0.689,2.649,2.285,3.266,4.535
		c0.763,2.794,1.488,5.987,1.96,6.931h-5.661c-0.362-0.726-0.979-2.686-1.669-5.697c-0.689-3.084-1.741-3.882-4.027-3.918h-1.633
		v9.615h-5.479V84.884z M58.538,95.406h2.177c2.757,0,4.39-1.379,4.39-3.52c0-2.213-1.523-3.374-4.064-3.374
		c-1.342,0-2.104,0.072-2.503,0.181V95.406z"/>
	<path fill="#FFFFFF" d="M74.574,84.92c2.032-0.326,4.681-0.544,7.438-0.544c4.681,0,7.729,0.871,10.052,2.612
		c2.54,1.887,4.136,4.898,4.136,9.217c0,4.681-1.705,7.91-4.027,9.906c-2.576,2.141-6.531,3.156-11.321,3.156
		c-2.866,0-4.935-0.182-6.277-0.362V84.92z M80.09,104.841c0.472,0.108,1.271,0.108,1.923,0.108
		c5.044,0.037,8.346-2.721,8.346-8.563c0-5.08-2.976-7.766-7.765-7.766c-1.197,0-2.032,0.109-2.504,0.218V104.841z"/>
</g>
<g>
	<g>
		<path fill="#231F20" d="M77.121,63.793c0,2.082-1.689,3.771-3.771,3.771H52.652c-2.082,0-3.771-1.689-3.771-3.771V43.097
			c0-2.083,1.689-3.772,3.771-3.772H73.35c2.082,0,3.771,1.689,3.771,3.772V63.793z"/>
		<g>

				<line fill="none" stroke="#231F20" stroke-width="2.9416" stroke-miterlimit="10" x1="45.113" y1="48.665" x2="80.887" y2="48.665"/>

				<line fill="none" stroke="#231F20" stroke-width="2.9416" stroke-miterlimit="10" x1="45.113" y1="58.225" x2="80.887" y2="58.225"/>
		</g>
		<g>

				<line fill="none" stroke="#231F20" stroke-width="2.9416" stroke-miterlimit="10" x1="67.781" y1="35.557" x2="67.781" y2="71.332"/>

				<line fill="none" stroke="#231F20" stroke-width="2.9416" stroke-miterlimit="10" x1="58.22" y1="35.557" x2="58.22" y2="71.332"/>
		</g>
	</g>
	<rect x="52.363" y="42.745" fill="#FFFFFF" width="21.172" height="21.173"/>
	<g>
		<rect x="57.323" y="47.767" fill="#FFFFFF" width="11.353" height="11.354"/>
		<path fill="#231F20" d="M67.286,49.158v8.573h-8.572v-8.573H67.286 M70.066,46.377l-14.133,0v14.134h14.133V46.377L70.066,46.377z
			"/>
	</g>
</g>
<g>
	<rect x="162.375" y="-27.25" fill="#FFFFFF" width="0.25" height="0"/>
	<polygon fill="#231F20" points="162.625,-27.25 162.375,-27.25 162.625,-27.25 	"/>
</g>
</svg>
