<?xml version="1.0" encoding="utf-8"?>
<!-- Generator: Adobe Illustrator 16.0.0, SVG Export Plug-In . SVG Version: 6.00 Build 0)  -->
<!DOCTYPE svg PUBLIC "-//W3C//DTD SVG 1.1//EN" "http://www.w3.org/Graphics/SVG/1.1/DTD/svg11.dtd">
<svg version="1.1" id="Layer_1" xmlns="http://www.w3.org/2000/svg" xmlns:xlink="http://www.w3.org/1999/xlink" x="0px" y="0px"
	 width="126px" height="126px" viewBox="0 0 126 126" enable-background="new 0 0 126 126" xml:space="preserve">
<g>
	<path fill-rule="evenodd" clip-rule="evenodd" d="M109.251,43.639c0,16.886,0,33.771,0,50.656c-0.828,2.477-2.645,3.129-5.11,3.126
		c-27.034-0.047-54.069-0.047-81.104,0c-2.466,0.003-4.282-0.649-5.11-3.126c0-20.69,0-41.381,0-62.072
		c0.723-2.083,2.11-3.129,4.392-3.113c6.945,0.048,13.891,0.024,20.835,0.013c1.645-0.003,2.958,0.574,4.031,1.86
		c2.206,2.642,4.534,5.185,6.701,7.857c1.019,1.255,2.102,1.768,3.763,1.76c15.492-0.069,30.986-0.016,46.48-0.067
		C106.569,40.527,108.418,41.159,109.251,43.639z"/>
</g>
</svg>
