<?xml version="1.0" encoding="utf-8"?>
<!-- Generator: Adobe Illustrator 16.0.0, SVG Export Plug-In . SVG Version: 6.00 Build 0)  -->
<!DOCTYPE svg PUBLIC "-//W3C//DTD SVG 1.1//EN" "http://www.w3.org/Graphics/SVG/1.1/DTD/svg11.dtd">
<svg version="1.1" id="Layer_1" xmlns="http://www.w3.org/2000/svg" xmlns:xlink="http://www.w3.org/1999/xlink" x="0px" y="0px"
	 width="126px" height="126px" viewBox="0 0 126 126" enable-background="new 0 0 126 126" xml:space="preserve">
<g>
	<path d="M99.874,36.585c-0.006-0.468-0.154-0.93-0.476-1.295L79.73,12.825c-0.004-0.006-0.011-0.008-0.017-0.014
		c-0.116-0.131-0.252-0.239-0.396-0.334c-0.043-0.028-0.086-0.053-0.131-0.078c-0.127-0.068-0.258-0.124-0.396-0.165
		c-0.037-0.011-0.069-0.026-0.106-0.036c-0.149-0.035-0.304-0.057-0.459-0.057H29.893c-2.205,0-4,1.795-4,4v94c0,2.207,1.795,4,4,4
		h66c2.207,0,4-1.793,4-4V36.809C99.893,36.733,99.881,36.659,99.874,36.585z M29.893,80.059V16.142h46.333v20.466
		c0,1.104,0.896,2,2,2h17.666l0.002,41.451H29.893z"/>
	<g enable-background="new    ">
		<path fill="#FFFFFF" d="M44.742,105.238c-1.13,0.403-3.283,0.915-5.355,0.915c-2.96,0-5.086-0.755-6.619-2.234
			c-1.642-1.56-2.53-4.036-2.503-6.834c0.054-6.243,4.251-9.446,9.552-9.446c2.072,0,3.633,0.404,4.414,0.781l-0.781,3.201
			c-0.861-0.376-1.911-0.672-3.552-0.672c-3.121,0-5.517,1.856-5.517,6.055c0,3.929,2.153,5.946,5.005,5.946
			c0.753,0,1.345-0.081,1.614-0.215v-3.982h-2.449v-3.095h6.189V105.238z"/>
		<path fill="#FFFFFF" d="M47.778,88.07c1.319-0.242,3.095-0.377,4.951-0.377c3.095,0,5.14,0.592,6.701,1.856
			c1.776,1.399,2.852,3.659,2.852,6.969c0,3.553-1.157,6.002-2.852,7.455c-1.722,1.479-4.278,2.18-7.508,2.18
			c-1.83,0-3.229-0.135-4.144-0.243V88.07z M51.708,102.978c0.296,0.054,0.78,0.054,1.184,0.054c3.095,0.027,5.248-1.91,5.248-6.458
			c0-3.768-1.83-5.813-4.925-5.813c-0.699,0-1.184,0.054-1.506,0.134V102.978z"/>
		<path fill="#FFFFFF" d="M79.689,96.681c0,6.217-3.257,9.553-7.993,9.553c-4.978,0-7.696-4.144-7.696-9.257
			c0-5.301,3.041-9.418,7.966-9.418C77.187,87.559,79.689,91.918,79.689,96.681z M68.145,96.924c0,3.713,1.399,6.107,3.741,6.107
			c2.395,0,3.659-2.637,3.659-6.216c0-3.229-1.212-6.055-3.687-6.055C69.518,90.761,68.145,93.291,68.145,96.924z"/>
		<path fill="#FFFFFF" d="M94.162,105.534c-0.673,0.322-2.18,0.673-4.064,0.673c-5.784,0-8.718-3.902-8.718-9.042
			c0-6.377,4.252-9.579,9.122-9.579c1.884,0,3.257,0.376,3.875,0.699l-0.779,3.176c-0.673-0.323-1.643-0.593-2.88-0.593
			c-2.88,0-5.193,1.911-5.193,6.056c0,3.848,1.991,5.945,5.193,5.945c1.05,0,2.207-0.215,2.906-0.483L94.162,105.534z"/>
	</g>
	<path d="M57.93,39.611h14.554c0.73,0,1.324-0.593,1.324-1.325s-0.594-1.325-1.324-1.325H57.93c-0.732,0-1.323,0.593-1.323,1.325
		C56.606,39.018,57.197,39.611,57.93,39.611z"/>
	<path d="M79.604,47.56H43.396c-0.732,0-1.326,0.593-1.326,1.325c0,0.732,0.594,1.324,1.326,1.324h36.208
		c0.732,0,1.326-0.592,1.326-1.324C80.93,48.153,80.337,47.56,79.604,47.56z"/>
	<path d="M79.604,58.083H43.396c-0.732,0-1.326,0.593-1.326,1.325s0.594,1.325,1.326,1.325h36.208c0.732,0,1.326-0.593,1.326-1.325
		S80.337,58.083,79.604,58.083z"/>
	<path d="M79.604,68.857H43.396c-0.732,0-1.326,0.594-1.326,1.326c0,0.731,0.594,1.324,1.326,1.324h36.208
		c0.732,0,1.326-0.593,1.326-1.324C80.93,69.451,80.337,68.857,79.604,68.857z"/>
</g>
<g>
	<path d="M51.778,42.336c-0.78,0.266-2.258,0.631-3.735,0.631c-2.042,0-3.52-0.515-4.549-1.494c-1.013-0.979-1.577-2.44-1.577-4.084
		c0.017-3.719,2.723-5.844,6.392-5.844c1.444,0,2.557,0.282,3.104,0.531l-0.531,2.042c-0.614-0.282-1.361-0.481-2.59-0.481
		c-2.108,0-3.719,1.179-3.719,3.619c0,2.324,1.461,3.669,3.536,3.669c0.564,0,1.029-0.066,1.229-0.149v-2.357h-1.727v-1.976h4.167
		V42.336z"/>
</g>
</svg>
