<?xml version="1.0" encoding="utf-8"?>
<!-- Generator: Adobe Illustrator 16.0.0, SVG Export Plug-In . SVG Version: 6.00 Build 0)  -->
<!DOCTYPE svg PUBLIC "-//W3C//DTD SVG 1.1//EN" "http://www.w3.org/Graphics/SVG/1.1/DTD/svg11.dtd">
<svg version="1.1" id="Layer_1" xmlns="http://www.w3.org/2000/svg" xmlns:xlink="http://www.w3.org/1999/xlink" x="0px" y="0px"
	 width="126px" height="126px" viewBox="0 0 126 126" enable-background="new 0 0 126 126" xml:space="preserve">
<g>
	<path d="M99.874,36.585c-0.006-0.468-0.154-0.93-0.476-1.295L79.73,12.825c-0.004-0.006-0.011-0.008-0.017-0.014
		c-0.116-0.131-0.252-0.239-0.396-0.334c-0.043-0.028-0.086-0.053-0.131-0.078c-0.127-0.068-0.258-0.124-0.396-0.165
		c-0.037-0.011-0.069-0.026-0.106-0.036c-0.149-0.035-0.304-0.057-0.459-0.057H29.893c-2.205,0-4,1.795-4,4v94c0,2.207,1.795,4,4,4
		h66c2.207,0,4-1.793,4-4V36.809C99.893,36.733,99.881,36.659,99.874,36.585z M29.893,80.059V16.142h46.333v20.466
		c0,1.104,0.896,2,2,2h17.666l0.002,41.451H29.893z"/>
</g>
<g enable-background="new    ">
	<path fill="#FFFFFF" d="M31.125,102.372c1.026,0.527,2.635,1.026,4.217,1.026c1.858,0,2.83-0.832,2.83-2.053
		s-0.888-1.887-2.913-2.746c-2.94-1.248-4.66-3.023-4.66-5.438c0-3.135,2.469-5.575,6.713-5.575c1.859,0,3.273,0.388,4.217,0.859
		l-0.832,3.301c-0.666-0.332-1.859-0.804-3.44-0.804c-1.748,0-2.58,0.888-2.58,1.83c0,1.193,0.888,1.721,3.19,2.719
		c3.051,1.332,4.383,3.079,4.383,5.521c0,3.218-2.414,5.771-7.102,5.771c-1.942,0-3.856-0.527-4.771-1.026L31.125,102.372z"/>
	<path fill="#FFFFFF" d="M44.908,87.836h4.05v15.285h6.63v3.412h-10.68V87.836z"/>
	<path fill="#FFFFFF" d="M62.021,87.836v18.697h-4.05V87.836H62.021z"/>
	<path fill="#FFFFFF" d="M65.57,88.086c1.359-0.25,3.189-0.389,5.104-0.389c3.19,0,5.299,0.61,6.908,1.914
		c1.83,1.442,2.939,3.772,2.939,7.185c0,3.662-1.192,6.187-2.939,7.685c-1.775,1.525-4.411,2.247-7.74,2.247
		c-1.887,0-3.328-0.139-4.271-0.25V88.086z M69.62,103.454c0.306,0.056,0.804,0.056,1.22,0.056c3.191,0.027,5.41-1.97,5.41-6.658
		c0-3.884-1.887-5.992-5.076-5.992c-0.722,0-1.221,0.056-1.554,0.139V103.454z"/>
	<path fill="#FFFFFF" d="M93.334,98.517h-6.103v4.66h6.824v3.356H83.182V87.836h10.485v3.356h-6.436v4.022h6.103V98.517z"/>
</g>
<path d="M59.889,37.984c-9.044,0-16.373,7.331-16.373,16.374c0,9.042,7.329,16.373,16.373,16.373
	c9.042,0,16.373-7.331,16.373-16.373H59.889V37.984z"/>
<path d="M62.11,51.774v0.005h16.375c0-4.606-1.91-8.761-4.971-11.736L62.11,51.774z"/>
<path d="M61.938,48.897L73.514,37.32c-3.256-3.257-7.318-4.846-11.588-4.785l0.008,16.358L61.938,48.897z"/>
</svg>
