<?xml version="1.0" encoding="utf-8"?>
<!-- Generator: Adobe Illustrator 16.0.0, SVG Export Plug-In . SVG Version: 6.00 Build 0)  -->
<!DOCTYPE svg PUBLIC "-//W3C//DTD SVG 1.1//EN" "http://www.w3.org/Graphics/SVG/1.1/DTD/svg11.dtd">
<svg version="1.1" id="Layer_1" xmlns="http://www.w3.org/2000/svg" xmlns:xlink="http://www.w3.org/1999/xlink" x="0px" y="0px"
	 width="126px" height="126px" viewBox="0 0 126 126" enable-background="new 0 0 126 126" xml:space="preserve">
<g>
	<path d="M99.98,36.443c-0.006-0.468-0.156-0.93-0.478-1.295L79.838,12.684c-0.006-0.006-0.012-0.008-0.016-0.014
		c-0.117-0.131-0.254-0.239-0.398-0.334c-0.043-0.028-0.086-0.053-0.131-0.078c-0.125-0.068-0.256-0.124-0.395-0.165
		c-0.037-0.011-0.07-0.026-0.107-0.036C78.643,12.021,78.488,12,78.332,12H30c-2.205,0-4,1.795-4,4v94c0,2.206,1.795,4,4,4h66
		c2.205,0,4-1.794,4-4V36.667C100,36.592,99.988,36.518,99.98,36.443z M30,79.917V16h46.332v20.466c0,1.104,0.896,2,2,2H96v41.451
		H30z"/>
	<path d="M44.287,39.457h22.188c0.734,0,1.334-0.597,1.334-1.333s-0.6-1.332-1.334-1.332H44.287c-0.736,0-1.332,0.596-1.332,1.332
		S43.551,39.457,44.287,39.457z"/>
	<path d="M80.666,47.45H44.252c-0.736,0-1.332,0.596-1.332,1.332c0,0.736,0.596,1.333,1.332,1.333h36.414
		c0.736,0,1.334-0.597,1.334-1.333C82,48.046,81.402,47.45,80.666,47.45z"/>
	<path d="M80.666,58.033H44.252c-0.736,0-1.332,0.596-1.332,1.333c0,0.736,0.596,1.333,1.332,1.333h36.414
		c0.736,0,1.334-0.597,1.334-1.333C82,58.629,81.402,58.033,80.666,58.033z"/>
	<path d="M80.666,68.87H44.252c-0.736,0-1.332,0.597-1.332,1.333s0.596,1.332,1.332,1.332h36.414c0.736,0,1.334-0.596,1.334-1.332
		S81.402,68.87,80.666,68.87z"/>
</g>
<g>
	<path fill="#FFFFFF" d="M58.927,99.538c-0.11-2.984-0.221-6.594-0.221-10.204h-0.11c-0.773,3.168-1.806,6.704-2.763,9.614
		l-3.021,9.688h-4.384l-2.651-9.614c-0.811-2.909-1.658-6.445-2.247-9.688h-0.074c-0.147,3.353-0.258,7.184-0.441,10.277
		l-0.442,9.43h-5.193l1.584-24.826h7.477l2.432,8.287c0.773,2.873,1.547,5.968,2.1,8.877h0.11c0.7-2.873,1.547-6.151,2.357-8.913
		l2.652-8.251h7.33l1.362,24.826h-5.488L58.927,99.538z"/>
	<path fill="#FFFFFF" d="M69.097,84.546c2.063-0.331,4.752-0.516,7.589-0.516c4.715,0,7.771,0.847,10.166,2.652
		c2.578,1.915,4.199,4.973,4.199,9.355c0,4.752-1.731,8.03-4.126,10.056c-2.615,2.174-6.593,3.205-11.455,3.205
		c-2.91,0-4.973-0.185-6.373-0.368V84.546z M74.732,104.805c0.479,0.111,1.253,0.111,1.953,0.111
		c5.083,0.036,8.397-2.763,8.397-8.693c0.037-5.157-2.983-7.883-7.809-7.883c-1.252,0-2.063,0.11-2.542,0.221V104.805z"/>
</g>
</svg>
