<?xml version="1.0" encoding="utf-8"?>
<!-- Generator: Adobe Illustrator 16.0.0, SVG Export Plug-In . SVG Version: 6.00 Build 0)  -->
<!DOCTYPE svg PUBLIC "-//W3C//DTD SVG 1.1//EN" "http://www.w3.org/Graphics/SVG/1.1/DTD/svg11.dtd">
<svg version="1.1" id="Layer_1" xmlns="http://www.w3.org/2000/svg" xmlns:xlink="http://www.w3.org/1999/xlink" x="0px" y="0px"
	 width="126px" height="126px" viewBox="0 0 126 126" enable-background="new 0 0 126 126" xml:space="preserve">
<g>
	<path d="M47.455,88.771h-0.072c-0.359,1.438-0.719,3.272-1.115,4.68l-1.439,5.146h5.363l-1.512-5.146
		C48.248,92.012,47.816,90.211,47.455,88.771z"/>
	<path d="M99.979,36.443c-0.004-0.468-0.151-0.93-0.475-1.295L79.838,12.684c-0.006-0.006-0.012-0.008-0.016-0.014
		c-0.117-0.131-0.254-0.239-0.398-0.334c-0.043-0.028-0.086-0.053-0.131-0.078c-0.125-0.068-0.258-0.124-0.395-0.165
		c-0.037-0.011-0.07-0.026-0.107-0.036C78.643,12.021,78.488,12,78.332,12H30c-2.207,0-4,1.795-4,4v94c0,2.206,1.793,4,4,4h66
		c2.205,0,4-1.794,4-4V36.667C100,36.592,99.988,36.518,99.979,36.443z M30,79.917V16h46.332v20.466c0,1.104,0.896,2,2,2H96v41.451
		H30z"/>
</g>
<g enable-background="new    ">
	<path fill="#FFFFFF" d="M33.145,84.884c1.705-0.29,4.1-0.508,7.475-0.508c3.411,0,5.842,0.653,7.475,1.959
		c1.597,1.234,2.613,3.266,2.613,5.661c0,2.395-0.762,4.463-2.25,5.806c-1.887,1.741-4.681,2.576-7.946,2.576
		c-0.726,0-1.379-0.036-1.887-0.146v8.781h-5.479V84.884z M38.624,95.987c0.472,0.108,1.016,0.146,1.851,0.146
		c2.939,0,4.753-1.488,4.753-3.955c0-2.25-1.561-3.593-4.354-3.593c-1.088,0-1.851,0.072-2.25,0.182V95.987z"/>
	<path fill="#FFFFFF" d="M72.15,108.36c-0.98,0.472-3.303,1.053-6.242,1.053c-8.454,0-12.808-5.298-12.808-12.265
		c0-8.346,5.951-12.954,13.353-12.954c2.867,0,5.043,0.544,6.023,1.089l-1.161,4.354c-1.089-0.472-2.649-0.907-4.645-0.907
		c-4.354,0-7.765,2.648-7.765,8.092c0,4.898,2.903,7.982,7.801,7.982c1.705,0,3.52-0.327,4.645-0.799L72.15,108.36z"/>
	<path fill="#FFFFFF" d="M75.813,84.884c1.451-0.254,4.354-0.508,7.148-0.508c3.374,0,5.442,0.326,7.257,1.379
		c1.705,0.907,2.903,2.576,2.903,4.826c0,2.141-1.271,4.136-4.028,5.188v0.072c2.794,0.726,4.862,2.867,4.862,5.987
		c0,2.25-1.016,3.991-2.54,5.226c-1.778,1.415-4.753,2.213-9.616,2.213c-2.721,0-4.753-0.182-5.986-0.362V84.884z M81.291,94.245
		h1.814c2.939,0,4.463-1.197,4.463-3.012c0-1.851-1.414-2.83-3.918-2.83c-1.234,0-1.924,0.073-2.359,0.146V94.245z M81.291,105.095
		c0.545,0.072,1.197,0.072,2.141,0.072c2.504,0,4.718-0.979,4.718-3.556c0-2.431-2.214-3.411-4.972-3.411h-1.887V105.095z"/>
</g>
<g>
	<g>
		<path fill="#231F20" d="M77.121,63.793c0,2.082-1.689,3.771-3.771,3.771H52.652c-2.082,0-3.771-1.689-3.771-3.771V43.097
			c0-2.083,1.689-3.772,3.771-3.772H73.35c2.082,0,3.771,1.689,3.771,3.772V63.793z"/>
		<g>

				<line fill="none" stroke="#231F20" stroke-width="2.9416" stroke-miterlimit="10" x1="45.113" y1="48.665" x2="80.887" y2="48.665"/>

				<line fill="none" stroke="#231F20" stroke-width="2.9416" stroke-miterlimit="10" x1="45.113" y1="58.225" x2="80.887" y2="58.225"/>
		</g>
		<g>

				<line fill="none" stroke="#231F20" stroke-width="2.9416" stroke-miterlimit="10" x1="67.781" y1="35.557" x2="67.781" y2="71.332"/>

				<line fill="none" stroke="#231F20" stroke-width="2.9416" stroke-miterlimit="10" x1="58.22" y1="35.557" x2="58.22" y2="71.332"/>
		</g>
	</g>
	<rect x="52.363" y="42.745" fill="#FFFFFF" width="21.172" height="21.173"/>
	<g>
		<rect x="57.323" y="47.767" fill="#FFFFFF" width="11.353" height="11.354"/>
		<path fill="#231F20" d="M67.286,49.158v8.573h-8.572v-8.573H67.286 M70.066,46.377H55.933v14.134h14.133V46.377L70.066,46.377z"/>
	</g>
</g>
<g>
	<polygon fill="#FFFFFF" points="162.375,-27.25 162.625,-27.25 162.625,-27.25 	"/>
	<path fill="#231F20" d="M162.625-27.25h-0.25H162.625z"/>
</g>
</svg>
