<?xml version="1.0" encoding="utf-8"?>
<!-- Generator: Adobe Illustrator 16.0.0, SVG Export Plug-In . SVG Version: 6.00 Build 0)  -->
<!DOCTYPE svg PUBLIC "-//W3C//DTD SVG 1.1//EN" "http://www.w3.org/Graphics/SVG/1.1/DTD/svg11.dtd">
<svg version="1.1" id="Layer_1" xmlns="http://www.w3.org/2000/svg" xmlns:xlink="http://www.w3.org/1999/xlink" x="0px" y="0px"
	 width="126px" height="126px" viewBox="0 0 126 126" enable-background="new 0 0 126 126" xml:space="preserve">
<g>
	<path d="M99.98,36.402c-0.006-0.468-0.154-0.93-0.476-1.295L79.838,12.643c-0.004-0.006-0.01-0.008-0.016-0.014
		c-0.117-0.131-0.252-0.239-0.396-0.334c-0.043-0.028-0.086-0.053-0.131-0.078c-0.127-0.068-0.258-0.124-0.395-0.165
		c-0.037-0.011-0.07-0.026-0.107-0.036c-0.15-0.035-0.303-0.057-0.459-0.057H30c-2.205,0-4,1.795-4,4v94c0,2.206,1.795,4,4,4h66
		c2.207,0,4-1.794,4-4V36.626C100,36.551,99.988,36.477,99.98,36.402z M30,79.876V15.959h46.334v20.466c0,1.104,0.895,2,2,2H96
		l0.002,41.451H30z"/>
	<path d="M44.563,88.007c-3.792,0-6.001,3.608-6.001,8.433c0,4.859,2.282,8.285,6.038,8.285c3.793,0,5.965-3.609,5.965-8.433
		C50.564,91.837,48.429,88.007,44.563,88.007z"/>
</g>
<g>
	<path fill="#231F20" d="M82.52,42.478c-0.101-0.068-0.229-0.082-0.34-0.036l-18.954,7.627c-0.138,0.056-0.229,0.189-0.229,0.339
		v22.767c0,0.121,0.061,0.234,0.161,0.304c0.061,0.041,0.132,0.063,0.204,0.063c0.046,0,0.093-0.01,0.136-0.025l18.954-7.629
		c0.138-0.056,0.229-0.189,0.229-0.339V42.78C82.682,42.659,82.62,42.546,82.52,42.478z M79.268,65.01l-14.27,5.74V59.207
		L79.268,65.01z M64.998,57.494v-5.981l15.682-6.31v18.665L64.998,57.494z"/>
	<path fill="#231F20" d="M61.274,50.068L42.32,42.441c-0.111-0.046-0.239-0.032-0.34,0.036s-0.161,0.182-0.161,0.303v22.766
		c0,0.149,0.091,0.283,0.229,0.339l18.954,7.629c0.043,0.018,0.09,0.025,0.136,0.025c0.072,0,0.144-0.021,0.204-0.063
		c0.101-0.068,0.161-0.183,0.161-0.304V50.407C61.503,50.258,61.412,50.124,61.274,50.068z M43.822,64.359V45.203l15.68,6.31v5.947
		L43.822,64.359z M59.502,59.193V70.75l-13.717-5.52L59.502,59.193z"/>
	<path fill="#231F20" d="M82.16,40.838c0-0.15-0.092-0.285-0.232-0.341l-19.464-7.598c-0.086-0.034-0.184-0.033-0.269,0.001
		l-18.953,7.627c-0.139,0.056-0.229,0.189-0.229,0.339c0,0.148,0.09,0.283,0.228,0.339l18.714,7.599
		c0.044,0.018,0.091,0.026,0.138,0.026c0.044,0,0.089-0.008,0.132-0.024l19.703-7.627C82.066,41.124,82.16,40.989,82.16,40.838z
		 M62.712,46.471V35.146l14.567,5.686L62.712,46.471z M61.123,35.489v10.815l-13.378-5.431L61.123,35.489z"/>
</g>
<g>
	<path fill="#FFFFFF" d="M37.273,102.834c1.474,0.773,3.831,1.547,6.225,1.547c2.579,0,3.941-1.068,3.941-2.688
		c0-1.547-1.179-2.432-4.163-3.463c-4.125-1.473-6.851-3.757-6.851-7.366c0-4.236,3.573-7.441,9.393-7.441
		c2.836,0,4.862,0.553,6.335,1.253l-1.252,4.493c-0.958-0.479-2.763-1.178-5.157-1.178c-2.431,0-3.61,1.142-3.61,2.394
		c0,1.584,1.363,2.284,4.604,3.499c4.384,1.621,6.41,3.905,6.41,7.404c0,4.162-3.168,7.698-9.982,7.698
		c-2.836,0-5.636-0.773-7.036-1.547L37.273,102.834z"/>
	<path fill="#FFFFFF" d="M61.805,88.506h-6.704v-4.715h19.08v4.715h-6.777v20.111h-5.599V88.506z"/>
	<path fill="#FFFFFF" d="M77.202,83.791h5.599v20.111h9.872v4.715H77.202V83.791z"/>
</g>
</svg>
