<?xml version="1.0" encoding="utf-8"?>
<!-- Generator: Adobe Illustrator 16.0.0, SVG Export Plug-In . SVG Version: 6.00 Build 0)  -->
<!DOCTYPE svg PUBLIC "-//W3C//DTD SVG 1.1//EN" "http://www.w3.org/Graphics/SVG/1.1/DTD/svg11.dtd">
<svg version="1.1" id="Layer_1" xmlns="http://www.w3.org/2000/svg" xmlns:xlink="http://www.w3.org/1999/xlink" x="0px" y="0px"
	 width="126px" height="126px" viewBox="0 0 126 126" enable-background="new 0 0 126 126" xml:space="preserve">
<g>
	<path d="M85.377,71.167c-2.572-6.106-5.15-12.214-7.73-18.318c-1.416-3.349-2.844-6.69-4.258-10.04
		c-1.541-3.647-3.078-7.296-4.599-10.952c-0.333-0.8-0.83-1.352-1.713-1.493c-0.041-0.007-13.148,0.048-13.174,0.048
		c-0.829-0.01-1.302,0.471-1.604,1.172c-0.414,0.965-0.814,1.935-1.219,2.902c-1.507,3.604-3.014,7.205-4.519,10.808
		c-1.881,4.501-3.761,9.001-5.641,13.502c-0.167,0.397-0.359,0.788-0.495,1.197c-0.073,0.218-0.121,0.426-0.149,0.626l-0.031-0.033
		c0,0,0.004,0.069,0.012,0.195c-0.026,0.294-0.006,0.568,0.056,0.818l3.107,8.654c0.936,3.034,2.347,2.067,3.959,1.407
		c1.613-0.66,19.309-8.199,19.309-8.199l-23.205-0.235l8.339-0.67l7.84-18.907L56.17,32.508l4.625,9.902
		c1.065,2.526,2.123,5.054,3.189,7.579c1.914,4.532,3.836,9.06,5.746,13.595c1.588,3.764,1.73,4.096,3.312,7.863
		c4.144,0,8.284,0,12.427,0C84.961,70.207,85.896,72.402,85.377,71.167z"/>
</g>
<g>
	<path d="M99.874,36.972c-0.006-0.468-0.154-0.93-0.476-1.295L79.73,13.212c-0.004-0.006-0.01-0.008-0.016-0.014
		c-0.117-0.131-0.252-0.239-0.396-0.334c-0.043-0.028-0.086-0.053-0.131-0.078c-0.127-0.068-0.258-0.124-0.395-0.165
		c-0.037-0.011-0.07-0.026-0.107-0.036c-0.149-0.035-0.303-0.057-0.459-0.057H29.893c-2.205,0-4,1.795-4,4v94c0,2.207,1.795,4,4,4
		h66c2.207,0,4-1.793,4-4V37.196C99.893,37.121,99.881,37.046,99.874,36.972z M47.353,106.067c-2.127,1.827-5.284,2.691-9.272,2.691
		c-2.26,0-3.988-0.166-5.118-0.299V86.426c1.628-0.299,3.822-0.465,6.115-0.465c3.822,0,6.347,0.73,8.275,2.293
		c2.193,1.729,3.523,4.52,3.523,8.607C50.875,101.248,49.446,104.272,47.353,106.067z M73.543,108.526h-5.186l-1.729-8.939
		c-0.432-2.193-0.797-4.454-1.063-7.046H65.5c-0.398,2.592-0.764,4.819-1.264,7.046l-1.96,8.939h-5.184L52.24,86.127h5.151
		l1.528,9.14c0.432,2.625,0.798,5.45,1.13,7.843h0.1c0.332-2.525,0.864-5.151,1.396-7.91l1.828-9.072h4.819l1.695,9.272
		c0.465,2.592,0.83,5.018,1.131,7.644h0.1c0.299-2.659,0.73-5.185,1.162-7.844l1.596-9.072h4.885L73.543,108.526z M93.818,90.148
		h-7.645v5.351h7.145v3.954h-7.145v9.073h-4.852V86.127h12.496V90.148z M29.893,80.445V16.529h46.333v20.466c0,1.104,0.896,2,2,2
		h17.666l0.002,41.45H29.893z"/>
	<path d="M39.676,89.749c-0.864,0-1.462,0.066-1.861,0.166v14.923c0.366,0.066,0.964,0.066,1.462,0.066
		c3.822,0.033,6.48-2.36,6.48-7.977C45.757,92.275,43.498,89.749,39.676,89.749z"/>
</g>
</svg>
