<?xml version="1.0" encoding="utf-8"?>
<!-- Generator: Adobe Illustrator 16.0.0, SVG Export Plug-In . SVG Version: 6.00 Build 0)  -->
<!DOCTYPE svg PUBLIC "-//W3C//DTD SVG 1.1//EN" "http://www.w3.org/Graphics/SVG/1.1/DTD/svg11.dtd">
<svg version="1.1" id="Layer_1" xmlns="http://www.w3.org/2000/svg" xmlns:xlink="http://www.w3.org/1999/xlink" x="0px" y="0px"
	 width="126px" height="126px" viewBox="0 0 126 126" enable-background="new 0 0 126 126" xml:space="preserve">
<g>
	<g>
		<path d="M76.148,91.726c-0.903,0-1.416,0.049-1.685,0.122v4.517h1.465c1.855,0,2.954-0.928,2.954-2.368
			C78.883,92.507,77.857,91.726,76.148,91.726z"/>
		<path d="M60.447,91.726c-2.539,0-4.004,2.393-4.004,5.591c0,3.247,1.514,5.518,4.004,5.518c2.515,0,3.955-2.393,3.955-5.591
			C64.401,94.265,63.01,91.726,60.447,91.726z"/>
		<path d="M99.979,36.443c-0.004-0.468-0.152-0.93-0.475-1.295L79.838,12.684c-0.006-0.006-0.012-0.008-0.016-0.014
			c-0.117-0.131-0.254-0.239-0.398-0.334c-0.043-0.028-0.086-0.053-0.131-0.078c-0.125-0.068-0.258-0.124-0.395-0.165
			c-0.037-0.011-0.07-0.026-0.107-0.036C78.643,12.021,78.488,12,78.332,12H30c-2.207,0-4,1.795-4,4v94c0,2.206,1.793,4,4,4h66
			c2.205,0,4-1.794,4-4V36.667C100,36.592,99.988,36.518,99.979,36.443z M46.795,105.52l-0.269-6.299
			c-0.073-1.978-0.146-4.37-0.146-6.763h-0.049c-0.537,2.1-1.221,4.443-1.855,6.372l-2.002,6.421h-2.905l-1.758-6.348
			c-0.537-1.953-1.074-4.297-1.489-6.445h-0.049c-0.073,2.222-0.171,4.761-0.269,6.812l-0.317,6.25h-3.442l1.05-16.455h4.956
			l1.611,5.493c0.537,1.904,1.025,3.955,1.392,5.884h0.098c0.439-1.904,1.001-4.077,1.563-5.908l1.733-5.469h4.883l0.879,16.455
			H46.795z M60.251,105.788c-4.858,0-7.739-3.687-7.739-8.398c0-4.932,3.174-8.618,8.008-8.618c5.053,0,7.813,3.784,7.813,8.35
			C68.333,102.541,65.085,105.788,60.251,105.788z M79.396,105.52c-0.244-0.488-0.659-1.807-1.123-3.833
			c-0.464-2.075-1.172-2.612-2.71-2.637h-1.099v6.47h-3.687V89.284c1.196-0.195,2.954-0.342,4.956-0.342
			c2.441,0,4.15,0.366,5.322,1.294c1.001,0.781,1.538,1.953,1.538,3.467c0,2.075-1.489,3.516-2.905,4.028v0.073
			c1.147,0.464,1.782,1.538,2.197,3.052c0.513,1.88,1.001,4.028,1.318,4.663H79.396z M95.756,105.52H85.282V89.064h10.132v3.052
			h-6.421v3.418h6.055v3.027h-6.055v3.906h6.763V105.52z M96,79.917H30V16h46.332v20.466c0,1.104,0.896,2,2,2H96V79.917z"/>
	</g>
</g>
<circle stroke="#FFFFFF" stroke-miterlimit="10" cx="44.672" cy="57.556" r="5.839"/>
<circle stroke="#FFFFFF" stroke-miterlimit="10" cx="61.838" cy="57.556" r="5.838"/>
<circle stroke="#FFFFFF" stroke-miterlimit="10" cx="79.005" cy="57.556" r="5.839"/>
</svg>
