<?xml version="1.0" encoding="utf-8"?>
<!-- Generator: Adobe Illustrator 16.0.0, SVG Export Plug-In . SVG Version: 6.00 Build 0)  -->
<!DOCTYPE svg PUBLIC "-//W3C//DTD SVG 1.1//EN" "http://www.w3.org/Graphics/SVG/1.1/DTD/svg11.dtd">
<svg version="1.1" id="Layer_1" xmlns="http://www.w3.org/2000/svg" xmlns:xlink="http://www.w3.org/1999/xlink" x="0px" y="0px"
	 width="402px" height="214px" viewBox="0 0 402 214" enable-background="new 0 0 402 214" xml:space="preserve">
<g>
	<g>
		<path fill="#FFFFFF" stroke="#E4E4E4" stroke-width="3.1586" stroke-miterlimit="10" d="M336.778,202.904h-233.47
			c-31.546,0-57.21-25.672-57.21-57.221c0-27.207,19.04-50.325,45.123-55.911C93.765,42.594,132.958,5,180.771,5
			c42.259,0,78.759,29.889,87.602,70.57c3.409-0.572,6.825-0.862,10.21-0.862c34.82,0,63.146,28.33,63.146,63.152
			c0,0.396-0.006,0.793-0.012,1.197c14.318,3.387,24.773,16.133,24.773,31.463c0,16.955-13.09,30.904-29.688,32.273L336.778,202.904
			z"/>
	</g>
</g>
<g>
	<path fill="#4399D4" d="M272.32,118.055c2.749,2.062,5.427,4.076,8.121,6.095c0.812,0.613,1.632,1.222,2.444,1.839
		c1.187,0.906,1.14,2.093-0.141,2.882c-3.562,2.201-7.114,4.403-10.698,6.559c-0.586,0.359-0.819,0.734-0.819,1.437
		c0.046,3.99,0.008,7.988,0.039,11.979c0.007,0.875-0.313,1.445-1.07,1.905c-6.513,3.99-13.017,7.988-19.502,12.01
		c-0.887,0.547-1.608,0.531-2.487-0.008c-6.488-4.029-12.997-8.027-19.51-12.01c-0.722-0.437-1.05-0.991-1.038-1.843
		c0.023-4.068,0-8.137,0.023-12.196c0.004-0.57-0.18-0.875-0.652-1.156c-3.576-2.179-7.133-4.381-10.693-6.571
		c-1.52-0.933-1.566-2.057-0.125-3.135c3.252-2.437,6.5-4.88,9.749-7.32c0.194-0.137,0.378-0.293,0.62-0.48
		c-0.25-0.195-0.457-0.359-0.667-0.516c-3.288-2.467-6.579-4.935-9.866-7.41c-1.195-0.897-1.168-2.104,0.098-2.881
		c6.598-4.068,13.212-8.13,19.811-12.202c0.827-0.512,1.53-0.395,2.275,0.167c3.53,2.671,7.091,5.311,10.616,7.997
		c0.496,0.374,0.781,0.323,1.241-0.023c3.491-2.647,6.997-5.264,10.503-7.896c1.062-0.796,1.437-0.812,2.569-0.113
		c6.48,3.986,12.97,7.978,19.451,11.968c1.476,0.913,1.522,2.046,0.125,3.1c-3.233,2.421-6.458,4.842-9.698,7.27
		C272.828,117.656,272.617,117.824,272.32,118.055z M249.465,132.462c-0.336,0.25-0.605,0.452-0.879,0.655
		c-3.385,2.538-6.774,5.084-10.163,7.621c-1.167,0.875-1.534,0.891-2.752,0.141c-1.43-0.882-2.854-1.757-4.287-2.631
		c-0.176-0.109-0.367-0.195-0.625-0.336c0,3.428-0.008,6.754,0.02,10.089c0,0.219,0.258,0.5,0.469,0.632
		c5.896,3.64,11.803,7.263,17.694,10.909c0.395,0.242,0.66,0.227,1.042-0.008c5.892-3.646,11.803-7.277,17.706-10.894
		c0.359-0.226,0.469-0.468,0.469-0.874c-0.016-3.093-0.008-6.185-0.008-9.276c0-0.18-0.039-0.352-0.07-0.594
		c-1.772,1.085-3.467,2.132-5.161,3.178c-0.727,0.453-1.414,0.445-2.093-0.086c-0.188-0.141-0.391-0.288-0.586-0.429
		C256.672,137.865,253.088,135.187,249.465,132.462z M266.714,118.063c-0.273-0.18-0.469-0.32-0.68-0.453
		c-5.317-3.271-10.635-6.543-15.945-9.839c-0.495-0.305-0.831-0.258-1.296,0.031c-5.31,3.288-10.632,6.56-15.949,9.831
		c-0.199,0.125-0.395,0.258-0.633,0.414c0.219,0.148,0.379,0.258,0.543,0.359c5.153,3.17,10.327,6.317,15.449,9.534
		c0.918,0.586,1.534,0.625,2.487,0.023C255.977,124.63,261.311,121.389,266.714,118.063z M279.363,108.856
		c-0.117-0.102-0.18-0.172-0.257-0.227c-5.576-3.428-11.144-6.849-16.703-10.292c-0.352-0.219-0.555-0.125-0.828,0.086
		c-2.967,2.241-5.95,4.467-8.925,6.7c-0.117,0.094-0.211,0.227-0.352,0.37c5.685,3.499,11.314,6.954,16.938,10.437
		c0.397,0.246,0.616,0.059,0.89-0.148c1.983-1.491,3.975-2.982,5.95-4.467C277.169,110.508,278.247,109.699,279.363,108.856z
		 M246.657,130.666c-0.074-0.07-0.105-0.102-0.145-0.125c-5.61-3.46-11.221-6.911-16.819-10.374
		c-0.391-0.238-0.605-0.082-0.891,0.129c-2.877,2.171-5.759,4.326-8.64,6.481c-0.199,0.148-0.398,0.312-0.641,0.507
		c5.728,3.526,11.373,7.005,17.038,10.456c0.18,0.109,0.602,0.023,0.801-0.125c2.101-1.538,4.178-3.107,6.263-4.67
		C244.631,132.188,245.639,131.431,246.657,130.666z M279.34,127.308c-0.07-0.102-0.078-0.152-0.125-0.18
		c-3.068-2.307-6.145-4.599-9.206-6.926c-0.359-0.273-0.594-0.148-0.905,0.039c-2.413,1.499-4.842,2.982-7.263,4.475
		c-3.178,1.96-6.363,3.92-9.597,5.911c0.211,0.164,0.367,0.296,0.539,0.429c2.896,2.171,5.802,4.334,8.683,6.528
		c0.438,0.336,0.727,0.297,1.148,0.031c2.015-1.265,4.053-2.499,6.083-3.748C272.227,131.688,275.764,129.51,279.34,127.308z
		 M219.53,108.81c0.227,0.184,0.387,0.32,0.555,0.453c2.877,2.162,5.767,4.31,8.624,6.496c0.457,0.344,0.758,0.313,1.211,0.031
		c5.349-3.318,10.713-6.609,16.077-9.909c0.195-0.125,0.387-0.266,0.625-0.43c-0.191-0.163-0.328-0.292-0.484-0.405
		c-2.889-2.179-5.794-4.342-8.675-6.536c-0.414-0.317-0.695-0.333-1.137-0.063c-4.829,2.998-9.679,5.974-14.527,8.956
		C221.061,107.864,220.322,108.321,219.53,108.81z"/>
</g>
<g>
	<g>
		<g>
			<path fill="#4399D4" d="M159.397,101.282l17.593,30.364h-17.705l-17.598-30.364H159.397 M161.126,98.282h-24.645l21.076,36.364
				h24.639L161.126,98.282L161.126,98.282z"/>
		</g>
	</g>
	<g>
		<g>
			<path fill="#4399D4" d="M132.988,110.125l8.777,15.297l-17.63,30.71l-8.836-15.179L132.988,110.125 M132.988,104.098
				l-21.154,36.866l12.319,21.162l21.071-36.704L132.988,104.098L132.988,104.098z"/>
		</g>
	</g>
	<g>
		<g>
			<path fill="#4399D4" d="M180.619,143.709l-8.836,15.413h-33.757l8.928-15.413H180.619 M185.797,140.709h-40.573l-12.403,21.413
				h40.7L185.797,140.709L185.797,140.709z"/>
		</g>
	</g>
</g>
</svg>
